<svg xmlns="http://www.w3.org/2000/svg" xmlns:xlink="http://www.w3.org/1999/xlink" version="1.1" id="Layer_1" x="0px" y="0px" viewBox="0 0 2831.434 1841.632" enable-background="new 0 0 2831.434 1841.632" xml:space="preserve">
<path xmlns="http://www.w3.org/2000/svg" fill="#FFFFFF" d="M419.077,916.052c0.176-1.222,0.272-2.469,0.272-3.739c0-14.349-11.632-25.982-25.981-25.982  c-2.5,0-4.915,0.361-7.203,1.019c-4.768-12.009-16.482-20.505-30.189-20.505c-16.263,0-29.732,11.954-32.105,27.554  c-1.668-0.4-3.408-0.617-5.199-0.617c-12.292,0-22.257,9.964-22.257,22.256h-2.99c-12.292,0-22.257,9.965-22.257,22.256v0.001  c0,12.291,9.965,22.256,22.257,22.256h125.105c12.291,0,22.256-9.965,22.256-22.256v-0.001  C440.784,926.186,431.114,916.345,419.077,916.052"/>
<path xmlns="http://www.w3.org/2000/svg" fill="#F0F2F7" d="M418.527,963.151H293.424c-13.706,0-24.857-11.15-24.857-24.856c0-13.705,11.151-24.857,24.857-24.857h0.524  c1.304-12.489,11.893-22.256,24.723-22.256c1.046,0,2.092,0.066,3.133,0.2c3.641-15.644,17.883-27.138,34.172-27.138  c13.704,0,25.912,7.802,31.699,20.061c1.876-0.381,3.782-0.574,5.692-0.574c15.76,0,28.581,12.822,28.581,28.581  c0,0.452-0.011,0.908-0.032,1.366c12.065,1.674,21.468,12.183,21.468,24.616C443.384,951.999,432.234,963.151,418.527,963.151   M293.424,918.638c-10.838,0-19.658,8.817-19.658,19.656c0,10.838,8.82,19.657,19.658,19.657h125.104  c10.84,0,19.656-8.817,19.656-19.656c0-10.574-8.6-19.388-19.17-19.644c-0.743-0.018-1.444-0.353-1.923-0.922  c-0.48-0.567-0.693-1.314-0.587-2.049c0.163-1.132,0.246-2.264,0.246-3.368c0-12.893-10.489-23.381-23.383-23.381  c-2.186,0-4.368,0.308-6.484,0.917c-1.296,0.376-2.643-0.297-3.136-1.539c-4.55-11.459-15.449-18.864-27.772-18.864  c-14.64,0-27.339,10.895-29.536,25.344c-0.109,0.72-0.516,1.36-1.119,1.766c-0.604,0.406-1.352,0.54-2.058,0.372  c-1.508-0.362-3.054-0.545-4.592-0.545c-10.839,0-19.658,8.818-19.658,19.656c0,1.435-1.164,2.6-2.6,2.6H293.424z"/>
<path xmlns="http://www.w3.org/2000/svg" fill="#FFFFFF" d="M517.268,685.838c0.124-0.855,0.189-1.728,0.189-2.617c0-10.045-8.143-18.188-18.186-18.188  c-1.75,0-3.44,0.253-5.042,0.714c-3.337-8.407-11.538-14.354-21.132-14.354c-11.385,0-20.815,8.368-22.476,19.288  c-1.167-0.28-2.385-0.432-3.639-0.432c-8.603,0-15.58,6.975-15.58,15.579h-2.093c-8.605,0-15.58,6.976-15.58,15.58  c0,8.604,6.975,15.579,15.58,15.579h87.573c8.604,0,15.58-6.975,15.58-15.579C532.463,692.933,525.693,686.043,517.268,685.838"/>
<path xmlns="http://www.w3.org/2000/svg" fill="#F0F2F7" d="M516.883,719.587h-87.574c-10.023,0-18.18-8.155-18.18-18.18c0-9.917,7.982-18.005,17.859-18.176  c1.264-8.799,8.852-15.581,17.995-15.581c0.532,0,1.065,0.024,1.599,0.071c2.874-10.955,12.983-18.928,24.514-18.928  c9.694,0,18.352,5.405,22.63,13.945c1.171-0.204,2.356-0.305,3.544-0.305c11.463,0,20.787,9.325,20.787,20.788  c0,0.098,0,0.195-0.002,0.293c8.489,1.522,15.008,9.039,15.008,17.893C535.063,711.432,526.908,719.587,516.883,719.587   M429.309,688.428c-7.156,0-12.978,5.823-12.978,12.979c0,7.157,5.822,12.98,12.978,12.98h87.574c7.157,0,12.98-5.823,12.98-12.98  c0-6.982-5.68-12.8-12.658-12.969c-0.743-0.019-1.444-0.354-1.923-0.923c-0.481-0.566-0.694-1.313-0.587-2.049  c0.107-0.747,0.162-1.503,0.162-2.245c0-8.596-6.993-15.588-15.588-15.588c-1.457,0-2.912,0.207-4.322,0.613  c-1.283,0.369-2.643-0.298-3.137-1.539c-3.065-7.724-10.409-12.714-18.715-12.714c-9.867,0-18.423,7.343-19.902,17.08  c-0.11,0.719-0.517,1.359-1.118,1.765c-0.603,0.404-1.349,0.542-2.058,0.372c-1.001-0.239-2.022-0.36-3.034-0.36  c-7.157,0-12.98,5.821-12.98,12.978c0,1.435-1.165,2.6-2.6,2.6H429.309z"/>
<path xmlns="http://www.w3.org/2000/svg" fill="#FFFFFF" d="M2590.999,797.493c0.124-0.855,0.19-1.728,0.19-2.617c0-10.045-8.143-18.188-18.187-18.188  c-1.751,0-3.44,0.253-5.042,0.714c-3.337-8.407-11.538-14.354-21.133-14.354c-11.385,0-20.813,8.368-22.475,19.288  c-1.168-0.28-2.386-0.432-3.639-0.432c-8.605,0-15.58,6.975-15.58,15.579h-2.094c-8.604,0-15.579,6.975-15.579,15.58  c0,8.604,6.976,15.579,15.579,15.579h87.573c8.604,0,15.579-6.975,15.579-15.579  C2606.193,804.588,2599.426,797.698,2590.999,797.493"/>
<path xmlns="http://www.w3.org/2000/svg" fill="#F0F2F7" d="M2590.615,831.242h-87.574c-10.024,0-18.18-8.156-18.18-18.18c0-9.915,7.981-18.003,17.858-18.174  c1.263-8.799,8.853-15.583,17.995-15.583c0.533,0,1.066,0.023,1.6,0.071c2.873-10.956,12.982-18.928,24.514-18.928  c9.693,0,18.353,5.405,22.631,13.946c1.172-0.203,2.355-0.305,3.543-0.305c11.463,0,20.788,9.326,20.788,20.787  c0,0.098,0,0.194-0.001,0.292c8.486,1.522,15.006,9.041,15.006,17.894C2608.795,823.086,2600.639,831.242,2590.615,831.242   M2503.041,800.083c-7.157,0-12.979,5.821-12.979,12.978c0,7.157,5.821,12.98,12.979,12.98h87.574  c7.156,0,12.979-5.823,12.979-12.98c0-6.982-5.68-12.8-12.657-12.969c-0.744-0.018-1.445-0.354-1.924-0.923  c-0.48-0.567-0.695-1.314-0.588-2.05c0.108-0.755,0.165-1.51,0.165-2.244c0-8.594-6.993-15.587-15.589-15.587  c-1.457,0-2.911,0.207-4.324,0.611c-1.288,0.376-2.641-0.297-3.135-1.538c-3.066-7.724-10.411-12.715-18.715-12.715  c-9.867,0-18.424,7.344-19.903,17.08c-0.11,0.719-0.516,1.359-1.118,1.766c-0.604,0.406-1.35,0.54-2.058,0.372  c-1-0.239-2.021-0.361-3.034-0.361c-7.157,0-12.98,5.824-12.98,12.98c0,1.435-1.164,2.6-2.6,2.6H2503.041z"/>
<path xmlns="http://www.w3.org/2000/svg" fill="#FFFFFF" d="M2366.463,447.689c0.229-1.588,0.354-3.21,0.354-4.861c0-18.654-15.123-33.776-33.776-33.776  c-3.25,0-6.39,0.468-9.363,1.325c-6.197-15.612-21.427-26.657-39.246-26.657c-21.142,0-38.653,15.539-41.737,35.82  c-2.17-0.519-4.431-0.802-6.76-0.802c-15.979,0-28.933,12.953-28.933,28.933h-3.89c-15.978,0-28.932,12.954-28.932,28.933  c0,15.98,12.954,28.933,28.932,28.933h162.638c15.979,0,28.933-12.953,28.933-28.933  C2394.682,460.864,2382.111,448.069,2366.463,447.689"/>
<path xmlns="http://www.w3.org/2000/svg" fill="#F0F2F7" d="M2365.749,508.137h-162.636c-17.389,0-31.533-14.146-31.533-31.533c0-17.388,14.145-31.533,31.533-31.533  h1.395c1.326-16.175,14.915-28.933,31.426-28.933c1.561,0,3.125,0.117,4.679,0.351c4.387-20.344,22.764-35.369,43.817-35.369  c17.719,0,33.479,10.205,40.766,26.19c2.577-0.57,5.208-0.858,7.846-0.858c20.059,0,36.376,16.318,36.376,36.376  c0,0.812-0.03,1.631-0.085,2.45c15.883,1.763,27.95,15.022,27.95,31.326C2397.282,493.991,2383.137,508.137,2365.749,508.137   M2203.113,450.271c-14.52,0-26.333,11.813-26.333,26.333c0,14.52,11.813,26.333,26.333,26.333h162.636  c14.519,0,26.333-11.813,26.333-26.333c0-14.166-11.521-25.972-25.682-26.316c-0.745-0.017-1.443-0.354-1.926-0.922  c-0.478-0.568-0.691-1.314-0.584-2.05c0.216-1.496,0.326-3.006,0.326-4.488c0-17.191-13.985-31.176-31.176-31.176  c-2.919,0-5.828,0.411-8.646,1.224c-1.288,0.366-2.642-0.296-3.136-1.54c-6.031-15.197-20.487-25.016-36.83-25.016  c-19.414,0-36.252,14.45-39.164,33.611c-0.11,0.719-0.517,1.36-1.119,1.765c-0.604,0.408-1.35,0.54-2.059,0.373  c-2.024-0.485-4.097-0.731-6.154-0.731c-14.521,0-26.332,11.813-26.332,26.333c0,1.436-1.165,2.6-2.6,2.6H2203.113z"/>
<path xmlns="http://www.w3.org/2000/svg" fill="#F0F2F7" d="M565.412,1549.474c0,15.383,83.133,27.852,185.683,27.852s185.685-12.469,185.685-27.852  s-83.135-27.854-185.685-27.854S565.412,1534.091,565.412,1549.474"/>
<path xmlns="http://www.w3.org/2000/svg" fill="#F0F2F7" d="M2461.066,1455.718H260.934c-1.352,0-2.446-1.096-2.446-2.447v-3.588c0-1.35,1.095-2.445,2.446-2.445  h2200.133c1.351,0,2.445,1.096,2.445,2.445v3.588C2463.512,1454.622,2462.417,1455.718,2461.066,1455.718"/>
<path xmlns="http://www.w3.org/2000/svg" fill="#F0F2F7" d="M1973.944,1288.144h-1330.2c-13.308,0-24.097-10.789-24.097-24.098V372.427  c0-13.309,10.789-24.098,24.097-24.098h1330.2c13.31,0,24.099,10.789,24.099,24.098v891.619  C1998.043,1277.354,1987.254,1288.144,1973.944,1288.144"/>
<path xmlns="http://www.w3.org/2000/svg" fill="#2A94F5" d="M1956.272,348.329H661.416c-23.068,0-41.77,18.701-41.77,41.77v856.275c0,23.068,18.701,41.771,41.77,41.771  h1294.856c23.069,0,41.771-18.703,41.771-41.771V390.099C1998.043,367.03,1979.342,348.329,1956.272,348.329 M1992.843,1246.374  c0,20.164-16.405,36.57-36.57,36.57H661.416c-20.164,0-36.569-16.406-36.569-36.57V390.099c0-20.165,16.405-36.57,36.569-36.57  h1294.856c20.165,0,36.57,16.405,36.57,36.57V1246.374z"/>
<path xmlns="http://www.w3.org/2000/svg" fill="#2A94F5" d="M1973.944,1288.144h-1330.2c-13.308,0-24.097-10.789-24.097-24.098v-101.211h1378.396v101.211  C1998.043,1277.354,1987.254,1288.144,1973.944,1288.144"/>
<path xmlns="http://www.w3.org/2000/svg" fill="#2A94F5" d="M1503.902,1447.237h-390.106c-3.445,0-4.155-6.307-4.155-16.768c0.668,1.213,397.777,1.213,398.445,0  C1508.086,1439.712,1507.348,1447.237,1503.902,1447.237"/>
<path xmlns="http://www.w3.org/2000/svg" fill="#CCE9FF" d="M1507.536,1432.228c-0.668,1.213-1.941,2.109-3.634,2.109h-390.106c-1.692,0-2.966-0.896-3.635-2.109  c-0.981-1.775-0.73-4.197,1.316-5.555l42.96-28.633c5.2-3.467,8.584-9.086,9.189-15.309l9.461-94.588h271.502l9.461,94.588  c0.626,6.223,4.009,11.842,9.21,15.309l42.96,28.633C1508.247,1428.03,1508.518,1430.452,1507.536,1432.228"/>
<path xmlns="http://www.w3.org/2000/svg" fill="#1975BA" d="M748.29,563.95h-34.936c-13.154,0-23.818-10.664-23.818-23.819v-58.756h82.574v58.756  C772.109,553.286,761.445,563.95,748.29,563.95"/>
<path xmlns="http://www.w3.org/2000/svg" fill="#FFFFFF" d="M830.864,563.95h-34.936c-13.155,0-23.819-10.664-23.819-23.819v-58.756h82.574v58.756  C854.684,553.286,844.02,563.95,830.864,563.95"/>
<path xmlns="http://www.w3.org/2000/svg" fill="#1975BA" d="M913.438,563.95h-34.935c-13.155,0-23.82-10.664-23.82-23.819v-58.756h82.575v58.756  C937.259,553.286,926.594,563.95,913.438,563.95"/>
<path xmlns="http://www.w3.org/2000/svg" fill="#FFFFFF" d="M996.014,563.95h-34.936c-13.154,0-23.819-10.664-23.819-23.819v-58.756h82.575v58.756  C1019.834,553.286,1009.168,563.95,996.014,563.95"/>
<path xmlns="http://www.w3.org/2000/svg" fill="#1975BA" d="M1078.588,563.95h-34.935c-13.155,0-23.82-10.664-23.82-23.819v-58.756h82.575v58.756  C1102.408,553.286,1091.743,563.95,1078.588,563.95"/>
<path xmlns="http://www.w3.org/2000/svg" fill="#FFFFFF" d="M1161.163,563.95h-34.937c-13.154,0-23.818-10.664-23.818-23.819v-58.756h82.574v58.756  C1184.982,553.286,1174.318,563.95,1161.163,563.95"/>
<path xmlns="http://www.w3.org/2000/svg" fill="#1975BA" d="M1243.737,563.95h-34.936c-13.155,0-23.819-10.664-23.819-23.819v-58.756h82.575v58.756  C1267.558,553.286,1256.893,563.95,1243.737,563.95"/>
<path xmlns="http://www.w3.org/2000/svg" fill="#1975BA" d="M1408.887,563.95h-34.936c-13.155,0-23.819-10.664-23.819-23.819v-58.756h82.574v58.756  C1432.706,553.286,1422.042,563.95,1408.887,563.95"/>
<path xmlns="http://www.w3.org/2000/svg" fill="#FFFFFF" d="M1326.313,563.95h-34.937c-13.154,0-23.818-10.664-23.818-23.819v-58.756h82.575v58.756  C1350.133,553.286,1339.467,563.95,1326.313,563.95"/>
<polygon xmlns="http://www.w3.org/2000/svg" fill="#0F528B" points="772.109,481.375 689.534,481.375 764.741,382.252 837.288,382.252 "/>
<polygon xmlns="http://www.w3.org/2000/svg" fill="#F0F2F7" points="854.684,481.375 772.109,481.375 837.288,382.252 909.835,382.252 "/>
<path xmlns="http://www.w3.org/2000/svg" fill="#1975BA" d="M583.141,563.95h-34.937c-13.154,0-23.818-10.664-23.818-23.819v-58.756h82.573v58.756  C606.959,553.286,596.296,563.95,583.141,563.95"/>
<path xmlns="http://www.w3.org/2000/svg" fill="#FFFFFF" d="M665.715,563.95h-34.935c-13.155,0-23.819-10.664-23.819-23.819v-58.756h82.574v58.756  C689.534,553.286,678.87,563.95,665.715,563.95"/>
<polygon xmlns="http://www.w3.org/2000/svg" fill="#0F528B" points="606.96,481.375 524.386,481.375 619.646,382.252 692.193,382.252 "/>
<polygon xmlns="http://www.w3.org/2000/svg" fill="#F0F2F7" points="689.534,481.375 606.96,481.375 692.193,382.252 764.741,382.252 "/>
<polygon xmlns="http://www.w3.org/2000/svg" fill="#0F528B" points="937.259,481.375 854.684,481.375 909.836,382.252 982.383,382.252 "/>
<polygon xmlns="http://www.w3.org/2000/svg" fill="#F0F2F7" points="1019.833,481.375 937.258,481.375 982.383,382.252 1054.93,382.252 "/>
<polygon xmlns="http://www.w3.org/2000/svg" fill="#0F528B" points="1102.408,481.375 1019.833,481.375 1054.929,382.252 1127.477,382.252 "/>
<polygon xmlns="http://www.w3.org/2000/svg" fill="#F0F2F7" points="1184.982,481.375 1102.408,481.375 1127.477,382.252 1200.023,382.252 "/>
<polygon xmlns="http://www.w3.org/2000/svg" fill="#0F528B" points="1267.558,481.375 1184.982,481.375 1200.023,382.252 1272.571,382.252 "/>
<polygon xmlns="http://www.w3.org/2000/svg" fill="#0F528B" points="1432.706,481.375 1350.133,481.375 1345.118,382.252 1417.665,382.252 "/>
<polygon xmlns="http://www.w3.org/2000/svg" fill="#F0F2F7" points="1350.132,481.375 1267.557,481.375 1272.571,382.252 1345.118,382.252 "/>
<path xmlns="http://www.w3.org/2000/svg" fill="#FFFFFF" d="M1491.462,563.95h-34.937c-13.154,0-23.818-10.664-23.818-23.819v-58.756h82.574v58.756  C1515.281,553.286,1504.617,563.95,1491.462,563.95"/>
<path xmlns="http://www.w3.org/2000/svg" fill="#1975BA" d="M1574.036,563.95H1539.1c-13.153,0-23.818-10.664-23.818-23.819v-58.756h82.574v58.756  C1597.855,553.286,1587.191,563.95,1574.036,563.95"/>
<path xmlns="http://www.w3.org/2000/svg" fill="#FFFFFF" d="M1656.611,563.95h-34.937c-13.154,0-23.818-10.664-23.818-23.819v-58.756h82.573v58.756  C1680.43,553.286,1669.766,563.95,1656.611,563.95"/>
<path xmlns="http://www.w3.org/2000/svg" fill="#1975BA" d="M1739.185,563.95h-34.935c-13.155,0-23.819-10.664-23.819-23.819v-58.756h82.575v58.756  C1763.006,553.286,1752.34,563.95,1739.185,563.95"/>
<path xmlns="http://www.w3.org/2000/svg" fill="#FFFFFF" d="M1821.761,563.95h-34.936c-13.154,0-23.818-10.664-23.818-23.819v-58.756h82.574v58.756  C1845.58,553.286,1834.916,563.95,1821.761,563.95"/>
<path xmlns="http://www.w3.org/2000/svg" fill="#1975BA" d="M1904.335,563.95h-34.937c-13.154,0-23.818-10.664-23.818-23.819v-58.756h82.574v58.756  C1928.154,553.286,1917.49,563.95,1904.335,563.95"/>
<path xmlns="http://www.w3.org/2000/svg" fill="#1975BA" d="M2069.484,563.95h-34.936c-13.155,0-23.819-10.664-23.819-23.819v-58.756h82.573v58.756  C2093.303,553.286,2082.639,563.95,2069.484,563.95"/>
<path xmlns="http://www.w3.org/2000/svg" fill="#FFFFFF" d="M1986.91,563.95h-34.936c-13.155,0-23.82-10.664-23.82-23.819v-58.756h82.574v58.756  C2010.729,553.286,2000.064,563.95,1986.91,563.95"/>
<polygon xmlns="http://www.w3.org/2000/svg" fill="#F0F2F7" points="1515.281,481.375 1432.706,481.375 1417.665,382.252 1490.213,382.252 "/>
<polygon xmlns="http://www.w3.org/2000/svg" fill="#0F528B" points="1597.856,481.375 1515.281,481.375 1490.212,382.252 1562.76,382.252 "/>
<polygon xmlns="http://www.w3.org/2000/svg" fill="#F0F2F7" points="1680.431,481.375 1597.856,481.375 1562.76,382.252 1635.307,382.252 "/>
<polygon xmlns="http://www.w3.org/2000/svg" fill="#0F528B" points="1763.006,481.375 1680.431,481.375 1635.307,382.252 1707.854,382.252 "/>
<polygon xmlns="http://www.w3.org/2000/svg" fill="#F0F2F7" points="1845.58,481.375 1763.006,481.375 1707.854,382.252 1780.4,382.252 "/>
<polygon xmlns="http://www.w3.org/2000/svg" fill="#0F528B" points="1928.154,481.375 1845.58,481.375 1780.401,382.252 1852.948,382.252 "/>
<polygon xmlns="http://www.w3.org/2000/svg" fill="#0F528B" points="2093.304,481.375 2010.729,481.375 1925.494,382.252 1998.043,382.252 "/>
<polygon xmlns="http://www.w3.org/2000/svg" fill="#F0F2F7" points="2010.729,481.375 1928.154,481.375 1852.948,382.252 1925.495,382.252 "/>
<path xmlns="http://www.w3.org/2000/svg" fill="#CCE9FF" d="M1168.811,743.818H985.624V597.034c0-3.243,2.629-5.872,5.872-5.872h171.443  c3.243,0,5.871,2.629,5.871,5.872V743.818z"/>
<path xmlns="http://www.w3.org/2000/svg" fill="#FFFFFF" d="M1162.939,845.589H991.496c-3.243,0-5.871-2.629-5.871-5.872v-95.899h183.186v95.899  C1168.811,842.96,1166.183,845.589,1162.939,845.589"/>
<path xmlns="http://www.w3.org/2000/svg" fill="#9AC7E2" d="M1150.609,769.261h-146.783c-1.621,0-2.937-1.314-2.937-2.936v-4.306c0-1.621,1.315-2.935,2.937-2.935  h146.783c1.622,0,2.937,1.314,2.937,2.935v4.306C1153.546,767.947,1152.231,769.261,1150.609,769.261"/>
<path xmlns="http://www.w3.org/2000/svg" fill="#CCE9FF" d="M1120.078,789.615h-116.253c-1.621,0-2.935-1.314-2.935-2.936v-4.306c0-1.621,1.313-2.935,2.935-2.935  h116.253c1.622,0,2.937,1.314,2.937,2.935v4.306C1123.015,788.301,1121.7,789.615,1120.078,789.615"/>
<path xmlns="http://www.w3.org/2000/svg" fill="#D2D2D2" d="M1079.37,809.969h-75.545c-1.621,0-2.935-1.314-2.935-2.936v-4.305c0-1.622,1.313-2.936,2.935-2.936h75.545  c1.622,0,2.937,1.314,2.937,2.936v4.305C1082.307,808.655,1080.992,809.969,1079.37,809.969"/>
<polygon xmlns="http://www.w3.org/2000/svg" fill="#FFC800" points="1007.878,820.4 1009.606,823.75 1013.475,824.289 1010.676,826.896 1011.337,830.578   1007.878,828.839 1004.419,830.578 1005.079,826.896 1002.279,824.289 1006.148,823.75 "/>
<polygon xmlns="http://www.w3.org/2000/svg" fill="#FFC800" points="1026.705,820.4 1028.435,823.75 1032.303,824.289 1029.504,826.896 1030.164,830.578   1026.705,828.839 1023.246,830.578 1023.906,826.896 1021.107,824.289 1024.976,823.75 "/>
<polygon xmlns="http://www.w3.org/2000/svg" fill="#FFC800" points="1045.532,820.4 1047.263,823.75 1051.131,824.289 1048.332,826.896 1048.991,830.578   1045.532,828.839 1042.073,830.578 1042.734,826.896 1039.936,824.289 1043.804,823.75 "/>
<polygon xmlns="http://www.w3.org/2000/svg" fill="#FFC800" points="1064.36,820.4 1066.09,823.75 1069.958,824.289 1067.159,826.896 1067.819,830.578 1064.36,828.839   1060.901,830.578 1061.562,826.896 1058.764,824.289 1062.631,823.75 "/>
<path xmlns="http://www.w3.org/2000/svg" fill="#FFC800" d="M1088.784,824.289l-3.866-0.538l-1.73-3.35l-1.729,3.35l-3.868,0.538l2.798,2.607l-0.66,3.682l3.459-1.738  l3.46,1.738l-0.661-3.682L1088.784,824.289z M1084.805,825.628c-0.432,0.401-0.628,0.994-0.525,1.574l0.049,0.271l-0.362-0.182  c-0.244-0.123-0.512-0.184-0.778-0.184c-0.266,0-0.533,0.061-0.778,0.184l-0.362,0.183l0.049-0.272  c0.103-0.579-0.094-1.173-0.525-1.574l-0.133-0.124l0.259-0.036c0.559-0.077,1.043-0.421,1.302-0.922l0.189-0.367l0.189,0.367  c0.259,0.501,0.743,0.845,1.302,0.922l0.259,0.036L1084.805,825.628z"/>
<path xmlns="http://www.w3.org/2000/svg" fill="#CCE9FF" d="M1400.438,743.818h-183.187V597.034c0-3.243,2.629-5.872,5.872-5.872h171.443  c3.243,0,5.871,2.629,5.871,5.872V743.818z"/>
<path xmlns="http://www.w3.org/2000/svg" fill="#FFFFFF" d="M1394.566,845.589h-171.443c-3.243,0-5.871-2.629-5.871-5.872v-95.899h183.186v95.899  C1400.438,842.96,1397.81,845.589,1394.566,845.589"/>
<path xmlns="http://www.w3.org/2000/svg" fill="#9AC7E2" d="M1382.236,769.261h-146.783c-1.621,0-2.937-1.314-2.937-2.936v-4.306c0-1.621,1.315-2.935,2.937-2.935  h146.783c1.622,0,2.936,1.314,2.936,2.935v4.306C1385.173,767.947,1383.858,769.261,1382.236,769.261"/>
<path xmlns="http://www.w3.org/2000/svg" fill="#CCE9FF" d="M1372.06,789.615h-136.606c-1.622,0-2.937-1.314-2.937-2.936v-4.306c0-1.621,1.314-2.935,2.937-2.935  h136.606c1.621,0,2.937,1.314,2.937,2.935v4.306C1374.996,788.301,1373.681,789.615,1372.06,789.615"/>
<path xmlns="http://www.w3.org/2000/svg" fill="#D2D2D2" d="M1310.997,809.969h-75.545c-1.621,0-2.935-1.314-2.935-2.936v-4.305c0-1.622,1.313-2.936,2.935-2.936h75.545  c1.622,0,2.937,1.314,2.937,2.936v4.305C1313.934,808.655,1312.619,809.969,1310.997,809.969"/>
<polygon xmlns="http://www.w3.org/2000/svg" fill="#FFC800" points="1239.505,820.4 1241.233,823.75 1245.102,824.289 1242.304,826.896 1242.964,830.578   1239.505,828.839 1236.046,830.578 1236.706,826.896 1233.908,824.289 1237.774,823.75 "/>
<polygon xmlns="http://www.w3.org/2000/svg" fill="#FFC800" points="1258.332,820.4 1260.062,823.75 1263.93,824.289 1261.131,826.896 1261.791,830.578   1258.332,828.839 1254.873,830.578 1255.533,826.896 1252.734,824.289 1256.603,823.75 "/>
<polygon xmlns="http://www.w3.org/2000/svg" fill="#FFC800" points="1277.159,820.4 1278.89,823.75 1282.758,824.289 1279.959,826.896 1280.618,830.578   1277.159,828.839 1273.7,830.578 1274.361,826.896 1271.563,824.289 1275.431,823.75 "/>
<path xmlns="http://www.w3.org/2000/svg" fill="#FFC800" d="M1301.584,824.289l-3.867-0.538l-1.73-3.35l-1.729,3.35l-3.867,0.538l2.798,2.607l-0.661,3.682l3.459-1.738  l3.46,1.738l-0.66-3.682L1301.584,824.289z M1297.604,825.628l-0.691,0.644l0.166,0.93l0.049,0.272l-0.362-0.183l-0.779-0.391  l-0.778,0.391l-0.361,0.182l0.049-0.271l0.167-0.93l-0.692-0.644l-0.133-0.124l0.259-0.036l0.891-0.124l0.412-0.798l0.188-0.367  l0.191,0.367l0.41,0.798l0.891,0.124l0.259,0.036L1297.604,825.628z"/>
<path xmlns="http://www.w3.org/2000/svg" fill="#FFC800" d="M1320.411,824.289l-3.866-0.538l-1.73-3.35l-1.73,3.35l-3.866,0.538l2.798,2.607l-0.661,3.682l3.46-1.738  l3.459,1.738l-0.66-3.682L1320.411,824.289z M1316.433,825.628l-0.692,0.644l0.167,0.93l0.048,0.272l-0.362-0.183l-0.778-0.391  l-0.778,0.391l-0.361,0.182l0.048-0.27l0.167-0.931l-0.692-0.644l-0.133-0.124l0.259-0.036l0.89-0.124l0.412-0.798l0.189-0.367  l0.189,0.367l0.412,0.798l0.891,0.124l0.259,0.036L1316.433,825.628z"/>
<path xmlns="http://www.w3.org/2000/svg" fill="#D4D4D4" d="M923.198,847.322h-6.915c-0.959,0-1.734-0.775-1.734-1.733s0.775-1.734,1.734-1.734h6.915  c0.958,0,1.734,0.776,1.734,1.734S924.156,847.322,923.198,847.322 M909.365,847.322h-6.918c-0.958,0-1.733-0.775-1.733-1.733  s0.775-1.734,1.733-1.734h6.918c0.959,0,1.734,0.776,1.734,1.734S910.324,847.322,909.365,847.322 M895.531,847.322h-6.916  c-0.959,0-1.733-0.775-1.733-1.733s0.774-1.734,1.733-1.734h6.916c0.958,0,1.733,0.776,1.733,1.734S896.489,847.322,895.531,847.322   M881.698,847.322h-6.915c-0.959,0-1.734-0.775-1.734-1.733s0.775-1.734,1.734-1.734h6.915c0.958,0,1.734,0.776,1.734,1.734  S882.656,847.322,881.698,847.322 M867.865,847.322h-6.916c-0.957,0-1.733-0.775-1.733-1.733s0.776-1.734,1.733-1.734h6.916  c0.958,0,1.734,0.776,1.734,1.734S868.823,847.322,867.865,847.322 M854.033,847.322h-6.916c-0.959,0-1.733-0.775-1.733-1.733  s0.774-1.734,1.733-1.734h6.916c0.959,0,1.733,0.776,1.733,1.734S854.992,847.322,854.033,847.322 M840.198,847.322h-6.915  c-0.959,0-1.734-0.775-1.734-1.733s0.775-1.734,1.734-1.734h6.915c0.958,0,1.733,0.776,1.733,1.734S841.156,847.322,840.198,847.322   M826.365,847.322h-6.916c-0.957,0-1.733-0.775-1.733-1.733s0.776-1.734,1.733-1.734h6.916c0.958,0,1.734,0.776,1.734,1.734  S827.323,847.322,826.365,847.322 M812.533,847.322h-6.916c-0.959,0-1.733-0.775-1.733-1.733s0.774-1.734,1.733-1.734h6.916  c0.957,0,1.733,0.776,1.733,1.734S813.49,847.322,812.533,847.322 M798.701,847.322h-6.918c-0.957,0-1.732-0.775-1.732-1.733  s0.775-1.734,1.732-1.734h6.918c0.957,0,1.732,0.776,1.732,1.734S799.658,847.322,798.701,847.322 M784.865,847.322h-6.916  c-0.957,0-1.733-0.775-1.733-1.733s0.776-1.734,1.733-1.734h6.916c0.958,0,1.733,0.776,1.733,1.734S785.823,847.322,784.865,847.322   M771.033,847.322h-6.859c-0.958,0-1.762-0.775-1.762-1.733s0.746-1.734,1.705-1.734h6.916c0.957,0,1.733,0.776,1.733,1.734  S771.99,847.322,771.033,847.322 M930.066,846.853c-0.736,0-1.42-0.472-1.653-1.212c-0.288-0.914,0.22-1.887,1.133-2.175  c1.831-0.577,3.429-1.779,4.499-3.385c0.528-0.799,1.605-1.018,2.4-0.483c0.799,0.53,1.016,1.607,0.483,2.402  c-1.506,2.265-3.758,3.959-6.341,4.773C930.414,846.828,930.238,846.853,930.066,846.853 M757.733,845.027  c-0.386,0-0.773-0.129-1.096-0.391c-2.107-1.723-3.571-4.134-4.123-6.783c-0.195-0.937,0.408-1.855,1.344-2.052  c0.939-0.188,1.856,0.407,2.052,1.345c0.39,1.877,1.428,3.583,2.922,4.805c0.741,0.606,0.852,1.699,0.246,2.439  C758.733,844.81,758.235,845.027,757.733,845.027 M937.185,836.196c-0.959,0-1.733-0.776-1.733-1.734v-6.916  c0-0.958,0.774-1.733,1.733-1.733c0.958,0,1.733,0.775,1.733,1.733v6.916C938.918,835.42,938.143,836.196,937.185,836.196   M753.998,832.33c-0.958,0-1.733-0.775-1.733-1.734v-6.916c0-0.958,0.775-1.733,1.733-1.733c0.958,0,1.733,0.775,1.733,1.733v6.916  C755.731,831.555,754.956,832.33,753.998,832.33 M937.185,822.363c-0.959,0-1.733-0.775-1.733-1.733v-6.917  c0-0.958,0.774-1.733,1.733-1.733c0.958,0,1.733,0.775,1.733,1.733v6.917C938.918,821.588,938.143,822.363,937.185,822.363   M753.998,818.497c-0.958,0-1.733-0.775-1.733-1.733v-6.917c0-0.958,0.775-1.733,1.733-1.733c0.958,0,1.733,0.775,1.733,1.733v6.917  C755.731,817.722,754.956,818.497,753.998,818.497 M937.185,808.529c-0.959,0-1.733-0.776-1.733-1.734v-6.916  c0-0.958,0.774-1.733,1.733-1.733c0.958,0,1.733,0.775,1.733,1.733v6.916C938.918,807.753,938.143,808.529,937.185,808.529   M753.998,804.663c-0.958,0-1.733-0.776-1.733-1.734v-6.916c0-0.958,0.775-1.734,1.733-1.734c0.958,0,1.733,0.776,1.733,1.734v6.916  C755.731,803.887,754.956,804.663,753.998,804.663 M937.185,794.696c-0.959,0-1.733-0.776-1.733-1.734v-6.916  c0-0.958,0.774-1.733,1.733-1.733c0.958,0,1.733,0.775,1.733,1.733v6.916C938.918,793.92,938.143,794.696,937.185,794.696   M753.998,790.83c-0.958,0-1.733-0.776-1.733-1.734v-6.916c0-0.958,0.775-1.733,1.733-1.733c0.958,0,1.733,0.775,1.733,1.733v6.916  C755.731,790.054,754.956,790.83,753.998,790.83 M937.185,780.863c-0.959,0-1.733-0.775-1.733-1.734v-6.916  c0-0.958,0.774-1.733,1.733-1.733c0.958,0,1.733,0.775,1.733,1.733v6.916C938.918,780.088,938.143,780.863,937.185,780.863   M753.998,776.997c-0.958,0-1.733-0.775-1.733-1.733v-6.917c0-0.958,0.775-1.733,1.733-1.733c0.958,0,1.733,0.775,1.733,1.733v6.917  C755.731,776.222,754.956,776.997,753.998,776.997 M937.185,767.03c-0.959,0-1.733-0.775-1.733-1.733v-6.917  c0-0.958,0.774-1.733,1.733-1.733c0.958,0,1.733,0.775,1.733,1.733v6.917C938.918,766.255,938.143,767.03,937.185,767.03   M753.998,763.164c-0.958,0-1.733-0.775-1.733-1.733v-6.917c0-0.958,0.775-1.733,1.733-1.733c0.958,0,1.733,0.775,1.733,1.733v6.917  C755.731,762.389,754.956,763.164,753.998,763.164 M937.185,753.196c-0.959,0-1.733-0.776-1.733-1.734v-6.916  c0-0.958,0.774-1.733,1.733-1.733c0.958,0,1.733,0.775,1.733,1.733v6.916C938.918,752.42,938.143,753.196,937.185,753.196   M753.998,749.331c-0.958,0-1.733-0.775-1.733-1.733v-6.918c0-0.958,0.775-1.734,1.733-1.734c0.958,0,1.733,0.776,1.733,1.734v6.918  C755.731,748.556,754.956,749.331,753.998,749.331 M937.185,739.363c-0.959,0-1.733-0.776-1.733-1.734v-6.916  c0-0.958,0.774-1.733,1.733-1.733c0.958,0,1.733,0.775,1.733,1.733v6.916C938.918,738.587,938.143,739.363,937.185,739.363   M753.998,735.497c-0.958,0-1.733-0.776-1.733-1.734v-6.916c0-0.958,0.775-1.733,1.733-1.733c0.958,0,1.733,0.775,1.733,1.733v6.916  C755.731,734.721,754.956,735.497,753.998,735.497 M937.185,725.53c-0.959,0-1.733-0.775-1.733-1.733v-6.917  c0-0.958,0.774-1.733,1.733-1.733c0.958,0,1.733,0.775,1.733,1.733v6.917C938.918,724.755,938.143,725.53,937.185,725.53   M753.998,721.664c-0.958,0-1.733-0.775-1.733-1.733v-6.917c0-0.958,0.775-1.733,1.733-1.733c0.958,0,1.733,0.775,1.733,1.733v6.917  C755.731,720.889,754.956,721.664,753.998,721.664 M937.185,711.697c-0.959,0-1.733-0.775-1.733-1.733v-6.917  c0-0.958,0.774-1.733,1.733-1.733c0.958,0,1.733,0.775,1.733,1.733v6.917C938.918,710.922,938.143,711.697,937.185,711.697   M753.998,707.831c-0.958,0-1.733-0.775-1.733-1.733v-6.917c0-0.958,0.775-1.733,1.733-1.733c0.958,0,1.733,0.775,1.733,1.733v6.917  C755.731,707.056,754.956,707.831,753.998,707.831 M937.185,697.863c-0.959,0-1.733-0.776-1.733-1.734v-6.916  c0-0.958,0.774-1.734,1.733-1.734c0.958,0,1.733,0.776,1.733,1.734v6.916C938.918,697.087,938.143,697.863,937.185,697.863   M753.998,693.999c-0.958,0-1.733-0.776-1.733-1.734v-6.918c0-0.958,0.775-1.734,1.733-1.734c0.958,0,1.733,0.776,1.733,1.734v6.918  C755.731,693.223,754.956,693.999,753.998,693.999 M937.185,684.03c-0.959,0-1.733-0.775-1.733-1.734v-6.916  c0-0.958,0.774-1.733,1.733-1.733c0.958,0,1.733,0.775,1.733,1.733v6.916C938.918,683.255,938.143,684.03,937.185,684.03   M753.998,680.164c-0.958,0-1.733-0.775-1.733-1.734v-6.916c0-0.958,0.775-1.733,1.733-1.733c0.958,0,1.733,0.775,1.733,1.733v6.916  C755.731,679.389,754.956,680.164,753.998,680.164 M937.185,670.197c-0.959,0-1.733-0.775-1.733-1.733v-6.917  c0-0.958,0.774-1.733,1.733-1.733c0.958,0,1.733,0.775,1.733,1.733v6.917C938.918,669.422,938.143,670.197,937.185,670.197   M753.998,666.331c-0.958,0-1.733-0.775-1.733-1.733v-6.917c0-0.958,0.775-1.733,1.733-1.733c0.958,0,1.733,0.775,1.733,1.733v6.917  C755.731,665.556,754.956,666.331,753.998,666.331 M937.185,656.364c-0.959,0-1.733-0.775-1.733-1.733v-6.917  c0-0.958,0.774-1.734,1.733-1.734c0.958,0,1.733,0.776,1.733,1.734v6.917C938.918,655.589,938.143,656.364,937.185,656.364   M753.998,652.498c-0.958,0-1.733-0.776-1.733-1.733v-6.917c0-0.958,0.775-1.734,1.733-1.734c0.958,0,1.733,0.776,1.733,1.734v6.917  C755.731,651.722,754.956,652.498,753.998,652.498 M937.185,642.531c-0.959,0-1.733-0.777-1.733-1.734v-6.916  c0-0.957,0.774-1.734,1.733-1.734c0.958,0,1.733,0.777,1.733,1.734v6.916C938.918,641.754,938.143,642.531,937.185,642.531   M753.998,638.665c-0.958,0-1.733-0.777-1.733-1.734v-6.916c0-0.957,0.775-1.734,1.733-1.734c0.958,0,1.733,0.777,1.733,1.734v6.916  C755.731,637.888,754.956,638.665,753.998,638.665 M937.185,628.698c-0.959,0-1.733-0.776-1.733-1.734v-6.917  c0-0.956,0.774-1.733,1.733-1.733c0.958,0,1.733,0.776,1.733,1.733v6.917C938.918,627.922,938.143,628.698,937.185,628.698   M753.998,624.832c-0.958,0-1.733-0.776-1.733-1.734v-6.917c0-0.957,0.775-1.733,1.733-1.733c0.958,0,1.733,0.776,1.733,1.733v6.917  C755.731,624.056,754.956,624.832,753.998,624.832 M937.185,614.864c-0.959,0-1.733-0.776-1.733-1.732v-6.917  c0-0.957,0.774-1.733,1.733-1.733c0.958,0,1.733,0.776,1.733,1.733v6.917C938.918,614.088,938.143,614.864,937.185,614.864   M753.998,610.998c-0.958,0-1.733-0.776-1.733-1.733v-6.917c0-0.957,0.775-1.733,1.733-1.733c0.958,0,1.733,0.776,1.733,1.733v6.917  C755.731,610.222,754.956,610.998,753.998,610.998 M936.981,601.046c-0.807,0-1.529-0.567-1.697-1.389  c-0.382-1.881-1.409-3.594-2.898-4.825c-0.737-0.61-0.839-1.703-0.231-2.441c0.612-0.736,1.705-0.841,2.441-0.23  c2.098,1.735,3.548,4.153,4.087,6.807c0.189,0.939-0.417,1.853-1.356,2.043C937.212,601.035,937.095,601.046,936.981,601.046   M755.662,597.493c-0.327,0-0.657-0.092-0.95-0.285c-0.8-0.525-1.023-1.599-0.497-2.4c1.491-2.273,3.733-3.981,6.313-4.809  c0.913-0.292,1.889,0.209,2.182,1.12c0.293,0.911-0.208,1.887-1.121,2.18c-1.826,0.587-3.416,1.799-4.477,3.412  C756.778,597.218,756.226,597.493,755.662,597.493 M927.088,592.897l0.037-1.733L927.088,592.897z M927.006,592.896h-6.916  c-0.958,0-1.733-0.776-1.733-1.733s0.775-1.733,1.733-1.733h6.916l0.119,1.734L927.006,592.896z M913.173,592.896h-6.916  c-0.958,0-1.733-0.776-1.733-1.733s0.775-1.733,1.733-1.733h6.916c0.959,0,1.733,0.776,1.733,1.733S914.132,592.896,913.173,592.896   M899.34,592.896h-6.917c-0.958,0-1.734-0.776-1.734-1.733s0.776-1.733,1.734-1.733h6.917c0.958,0,1.733,0.776,1.733,1.733  S900.298,592.896,899.34,592.896 M885.506,592.896h-6.916c-0.958,0-1.734-0.776-1.734-1.733s0.776-1.733,1.734-1.733h6.916  c0.958,0,1.732,0.776,1.732,1.733S886.464,592.896,885.506,592.896 M871.673,592.896h-6.916c-0.958,0-1.733-0.776-1.733-1.733  s0.775-1.733,1.733-1.733h6.916c0.959,0,1.732,0.776,1.732,1.733S872.632,592.896,871.673,592.896 M857.84,592.896h-6.916  c-0.958,0-1.733-0.776-1.733-1.733s0.775-1.733,1.733-1.733h6.916c0.958,0,1.733,0.776,1.733,1.733S858.798,592.896,857.84,592.896   M844.007,592.896h-6.917c-0.958,0-1.734-0.776-1.734-1.733s0.776-1.733,1.734-1.733h6.917c0.959,0,1.733,0.776,1.733,1.733  S844.966,592.896,844.007,592.896 M830.173,592.896h-6.916c-0.959,0-1.733-0.776-1.733-1.733s0.774-1.733,1.733-1.733h6.916  c0.958,0,1.732,0.776,1.732,1.733S831.131,592.896,830.173,592.896 M816.34,592.896h-6.916c-0.958,0-1.733-0.776-1.733-1.733  s0.775-1.733,1.733-1.733h6.916c0.958,0,1.733,0.776,1.733,1.733S817.298,592.896,816.34,592.896 M802.507,592.896h-6.916  c-0.958,0-1.733-0.776-1.733-1.733s0.775-1.733,1.733-1.733h6.916c0.958,0,1.733,0.776,1.733,1.733S803.465,592.896,802.507,592.896   M788.675,592.896h-6.917c-0.958,0-1.733-0.776-1.733-1.733s0.775-1.733,1.733-1.733h6.917c0.958,0,1.733,0.776,1.733,1.733  S789.633,592.896,788.675,592.896 M774.84,592.896h-6.916c-0.958,0-1.733-0.776-1.733-1.733s0.775-1.733,1.733-1.733h6.916  c0.958,0,1.733,0.776,1.733,1.733S775.798,592.896,774.84,592.896"/>
<path xmlns="http://www.w3.org/2000/svg" fill="#CCE9FF" d="M1632.065,743.818h-183.188V597.034c0-3.243,2.629-5.872,5.872-5.872h171.443  c3.243,0,5.872,2.629,5.872,5.872V743.818z"/>
<path xmlns="http://www.w3.org/2000/svg" fill="#FFFFFF" d="M1626.193,845.589H1454.75c-3.243,0-5.872-2.629-5.872-5.872v-95.899h183.188v95.899  C1632.065,842.96,1629.437,845.589,1626.193,845.589"/>
<path xmlns="http://www.w3.org/2000/svg" fill="#9AC7E2" d="M1613.864,769.261H1467.08c-1.622,0-2.938-1.314-2.938-2.936v-4.306c0-1.621,1.315-2.935,2.938-2.935  h146.784c1.621,0,2.936,1.314,2.936,2.935v4.306C1616.8,767.947,1615.485,769.261,1613.864,769.261"/>
<path xmlns="http://www.w3.org/2000/svg" fill="#CCE9FF" d="M1573.155,789.615H1467.08c-1.622,0-2.938-1.314-2.938-2.936v-4.306c0-1.621,1.315-2.935,2.938-2.935  h106.075c1.622,0,2.937,1.314,2.937,2.935v4.306C1576.092,788.301,1574.777,789.615,1573.155,789.615"/>
<path xmlns="http://www.w3.org/2000/svg" fill="#D2D2D2" d="M1542.625,809.969h-75.545c-1.622,0-2.937-1.314-2.937-2.936v-4.305c0-1.622,1.314-2.936,2.937-2.936h75.545  c1.621,0,2.935,1.314,2.935,2.936v4.305C1545.56,808.655,1544.246,809.969,1542.625,809.969"/>
<polygon xmlns="http://www.w3.org/2000/svg" fill="#FFC800" points="1471.132,820.4 1472.86,823.75 1476.729,824.289 1473.931,826.896 1474.591,830.578   1471.132,828.839 1467.673,830.578 1468.333,826.896 1465.533,824.289 1469.402,823.75 "/>
<polygon xmlns="http://www.w3.org/2000/svg" fill="#FFC800" points="1489.959,820.4 1491.688,823.75 1495.557,824.289 1492.758,826.896 1493.419,830.578   1489.959,828.839 1486.5,830.578 1487.161,826.896 1484.361,824.289 1488.229,823.75 "/>
<polygon xmlns="http://www.w3.org/2000/svg" fill="#FFC800" points="1508.787,820.4 1510.516,823.75 1514.384,824.289 1511.586,826.896 1512.246,830.578   1508.787,828.839 1505.327,830.578 1505.988,826.896 1503.189,824.289 1507.058,823.75 "/>
<polygon xmlns="http://www.w3.org/2000/svg" fill="#FFC800" points="1527.614,820.4 1529.343,823.75 1533.212,824.289 1530.413,826.896 1531.073,830.578   1527.614,828.839 1524.155,830.578 1524.815,826.896 1522.016,824.289 1525.885,823.75 "/>
<path xmlns="http://www.w3.org/2000/svg" fill="#FFC800" d="M1552.039,824.289l-3.867-0.538l-1.73-3.35l-1.73,3.35l-3.866,0.538l2.798,2.607l-0.66,3.682l3.459-1.738  l3.46,1.738l-0.661-3.682L1552.039,824.289z M1548.06,825.628l-0.691,0.644l0.166,0.93l0.048,0.271l-0.361-0.182l-0.779-0.391  l-0.778,0.391l-0.362,0.183l0.049-0.272l0.166-0.93l-0.691-0.644l-0.133-0.124l0.259-0.036l0.89-0.124l0.411-0.798l0.19-0.367  l0.189,0.367l0.412,0.798l0.89,0.124l0.26,0.036L1548.06,825.628z"/>
<path xmlns="http://www.w3.org/2000/svg" fill="#CCE9FF" d="M1863.692,743.818h-183.187V597.034c0-3.243,2.627-5.872,5.87-5.872h171.445  c3.242,0,5.871,2.629,5.871,5.872V743.818z"/>
<path xmlns="http://www.w3.org/2000/svg" fill="#FFFFFF" d="M1857.821,845.589h-171.444c-3.244,0-5.872-2.629-5.872-5.872v-95.899h183.188v95.899  C1863.692,842.96,1861.063,845.589,1857.821,845.589"/>
<path xmlns="http://www.w3.org/2000/svg" fill="#9AC7E2" d="M1845.491,769.261h-146.784c-1.622,0-2.936-1.314-2.936-2.936v-4.306c0-1.621,1.313-2.935,2.936-2.935  h146.784c1.621,0,2.936,1.314,2.936,2.935v4.306C1848.427,767.947,1847.112,769.261,1845.491,769.261"/>
<path xmlns="http://www.w3.org/2000/svg" fill="#CCE9FF" d="M1825.137,789.615h-126.43c-1.622,0-2.936-1.314-2.936-2.936v-4.306c0-1.621,1.313-2.935,2.936-2.935h126.43  c1.621,0,2.936,1.314,2.936,2.935v4.306C1828.072,788.301,1826.758,789.615,1825.137,789.615"/>
<path xmlns="http://www.w3.org/2000/svg" fill="#D2D2D2" d="M1774.252,809.969h-75.545c-1.622,0-2.936-1.314-2.936-2.936v-4.305c0-1.622,1.313-2.936,2.936-2.936h75.545  c1.621,0,2.936,1.314,2.936,2.936v4.305C1777.188,808.655,1775.873,809.969,1774.252,809.969"/>
<polygon xmlns="http://www.w3.org/2000/svg" fill="#FFC800" points="1702.759,820.4 1704.487,823.75 1708.356,824.289 1705.558,826.896 1706.218,830.578   1702.759,828.839 1699.3,830.578 1699.96,826.896 1697.16,824.289 1701.029,823.75 "/>
<polygon xmlns="http://www.w3.org/2000/svg" fill="#FFC800" points="1721.586,820.4 1723.316,823.75 1727.184,824.289 1724.385,826.896 1725.046,830.578   1721.586,828.839 1718.127,830.578 1718.788,826.896 1715.988,824.289 1719.857,823.75 "/>
<polygon xmlns="http://www.w3.org/2000/svg" fill="#FFC800" points="1740.414,820.4 1742.143,823.75 1746.011,824.289 1743.213,826.896 1743.873,830.578   1740.414,828.839 1736.954,830.578 1737.615,826.896 1734.816,824.289 1738.685,823.75 "/>
<polygon xmlns="http://www.w3.org/2000/svg" fill="#FFC800" points="1759.241,820.4 1760.97,823.75 1764.839,824.289 1762.04,826.896 1762.701,830.578   1759.241,828.839 1755.782,830.578 1756.442,826.896 1753.643,824.289 1757.512,823.75 "/>
<path xmlns="http://www.w3.org/2000/svg" fill="#FFC800" d="M1783.666,824.289l-3.867-0.538l-1.73-3.35l-1.729,3.35l-3.868,0.538l2.799,2.607l-0.661,3.682l3.459-1.738  l3.46,1.738l-0.661-3.682L1783.666,824.289z M1779.685,825.628l-0.691,0.644l0.167,0.93l0.048,0.272l-0.361-0.183l-0.779-0.391  l-0.777,0.391l-0.363,0.182l0.049-0.27l0.167-0.931l-0.692-0.644l-0.133-0.124l0.259-0.036l0.89-0.124l0.411-0.798l0.189-0.366  l0.189,0.366l0.412,0.798l0.89,0.124l0.26,0.036L1779.685,825.628z"/>
<path xmlns="http://www.w3.org/2000/svg" fill="#FFFFFF" d="M1772.099,673.938c-13.379,0-24.265-10.884-24.265-24.264c0-13.379,10.886-24.265,24.265-24.265  c13.38,0,24.264,10.886,24.264,24.265C1796.362,663.054,1785.479,673.938,1772.099,673.938 M1772.099,634.076  c-8.601,0-15.599,6.997-15.599,15.598c0,8.6,6.998,15.597,15.599,15.597c8.601,0,15.597-6.997,15.597-15.597  C1787.695,641.073,1780.699,634.076,1772.099,634.076"/>
<path xmlns="http://www.w3.org/2000/svg" fill="#FFFFFF" d="M954.24,936.166H760.666c-3.683,0-6.668-2.986-6.668-6.669v-9.781c0-3.683,2.985-6.669,6.668-6.669H954.24  c3.684,0,6.668,2.986,6.668,6.669v9.781C960.908,933.18,957.924,936.166,954.24,936.166"/>
<path xmlns="http://www.w3.org/2000/svg" fill="#FFFFFF" d="M1858.707,936.166h-105.624c-2.753,0-4.984-2.232-4.984-4.985v-13.149c0-2.753,2.231-4.985,4.984-4.985  h105.624c2.753,0,4.984,2.232,4.984,4.985v13.149C1863.691,933.934,1861.46,936.166,1858.707,936.166"/>
<path xmlns="http://www.w3.org/2000/svg" fill="#FFFFFF" d="M1094.108,1028.64H760.666c-3.683,0-6.669-2.984-6.669-6.668v-44.459c0-3.683,2.986-6.669,6.669-6.669  h333.442c3.683,0,6.669,2.986,6.669,6.669v44.459C1100.777,1025.655,1097.791,1028.64,1094.108,1028.64"/>
<path xmlns="http://www.w3.org/2000/svg" fill="#CCE9FF" d="M1075.547,1008.411H819.685c-2.763,0-5.002-2.238-5.002-5.002v-7.335c0-2.762,2.239-5.001,5.002-5.001  h255.861c2.762,0,5.001,2.239,5.001,5.001v7.335C1080.548,1006.173,1078.309,1008.411,1075.547,1008.411"/>
<path xmlns="http://www.w3.org/2000/svg" fill="#9AC7E2" d="M803.125,999.741c0,7.98-6.469,14.449-14.449,14.449c-7.98,0-14.449-6.469-14.449-14.449  c0-7.979,6.469-14.449,14.449-14.449C796.656,985.292,803.125,991.763,803.125,999.741"/>
<path xmlns="http://www.w3.org/2000/svg" fill="#FFFFFF" d="M1475.565,1028.64h-333.441c-3.684,0-6.669-2.984-6.669-6.668v-44.459c0-3.683,2.985-6.669,6.669-6.669  h333.441c3.684,0,6.669,2.986,6.669,6.669v44.459C1482.234,1025.655,1479.249,1028.64,1475.565,1028.64"/>
<path xmlns="http://www.w3.org/2000/svg" fill="#CCE9FF" d="M1457.004,1008.411h-255.861c-2.762,0-5.001-2.238-5.001-5.002v-7.335c0-2.762,2.239-5.001,5.001-5.001  h255.861c2.763,0,5.002,2.239,5.002,5.001v7.335C1462.006,1006.173,1459.767,1008.411,1457.004,1008.411"/>
<path xmlns="http://www.w3.org/2000/svg" fill="#9AC7E2" d="M1184.582,999.741c0,7.98-6.469,14.449-14.449,14.449s-14.449-6.469-14.449-14.449  c0-7.979,6.469-14.449,14.449-14.449S1184.582,991.763,1184.582,999.741"/>
<path xmlns="http://www.w3.org/2000/svg" fill="#FFFFFF" d="M1857.023,1028.64H1523.58c-3.682,0-6.668-2.984-6.668-6.668v-44.459c0-3.683,2.986-6.669,6.668-6.669  h333.443c3.683,0,6.669,2.986,6.669,6.669v44.459C1863.692,1025.655,1860.706,1028.64,1857.023,1028.64"/>
<path xmlns="http://www.w3.org/2000/svg" fill="#CCE9FF" d="M1838.461,1008.411h-255.86c-2.763,0-5.002-2.238-5.002-5.002v-7.335c0-2.762,2.239-5.001,5.002-5.001  h255.86c2.763,0,5.002,2.239,5.002,5.001v7.335C1843.463,1006.173,1841.224,1008.411,1838.461,1008.411"/>
<path xmlns="http://www.w3.org/2000/svg" fill="#9AC7E2" d="M1566.039,999.741c0,7.98-6.469,14.449-14.448,14.449c-7.981,0-14.449-6.469-14.449-14.449  c0-7.979,6.468-14.449,14.449-14.449C1559.57,985.292,1566.039,991.763,1566.039,999.741"/>
<path xmlns="http://www.w3.org/2000/svg" fill="#FFFFFF" d="M1094.108,1111.88H760.666c-3.683,0-6.669-2.985-6.669-6.67v-44.459c0-3.683,2.986-6.668,6.669-6.668  h333.442c3.683,0,6.669,2.985,6.669,6.668v44.459C1100.777,1108.895,1097.791,1111.88,1094.108,1111.88"/>
<path xmlns="http://www.w3.org/2000/svg" fill="#CCE9FF" d="M1075.547,1091.651H819.685c-2.763,0-5.002-2.239-5.002-5.002v-7.336c0-2.763,2.239-5.002,5.002-5.002  h255.861c2.762,0,5.001,2.239,5.001,5.002v7.336C1080.548,1089.412,1078.309,1091.651,1075.547,1091.651"/>
<path xmlns="http://www.w3.org/2000/svg" fill="#9AC7E2" d="M803.125,1082.981c0,7.979-6.469,14.449-14.449,14.449c-7.98,0-14.449-6.47-14.449-14.449  s6.469-14.449,14.449-14.449C796.656,1068.532,803.125,1075.002,803.125,1082.981"/>
<path xmlns="http://www.w3.org/2000/svg" fill="#FFFFFF" d="M1475.565,1111.88h-333.441c-3.684,0-6.669-2.985-6.669-6.67v-44.459c0-3.683,2.985-6.668,6.669-6.668  h333.441c3.684,0,6.669,2.985,6.669,6.668v44.459C1482.234,1108.895,1479.249,1111.88,1475.565,1111.88"/>
<path xmlns="http://www.w3.org/2000/svg" fill="#CCE9FF" d="M1457.004,1091.651h-255.861c-2.762,0-5.001-2.239-5.001-5.002v-7.336c0-2.763,2.239-5.002,5.001-5.002  h255.861c2.763,0,5.002,2.239,5.002,5.002v7.336C1462.006,1089.412,1459.767,1091.651,1457.004,1091.651"/>
<path xmlns="http://www.w3.org/2000/svg" fill="#9AC7E2" d="M1184.582,1082.981c0,7.979-6.469,14.449-14.449,14.449s-14.449-6.47-14.449-14.449  s6.469-14.449,14.449-14.449S1184.582,1075.002,1184.582,1082.981"/>
<path xmlns="http://www.w3.org/2000/svg" fill="#FFFFFF" d="M1857.023,1111.88H1523.58c-3.682,0-6.668-2.985-6.668-6.67v-44.459c0-3.683,2.986-6.668,6.668-6.668  h333.443c3.683,0,6.669,2.985,6.669,6.668v44.459C1863.692,1108.895,1860.706,1111.88,1857.023,1111.88"/>
<path xmlns="http://www.w3.org/2000/svg" fill="#CCE9FF" d="M1838.461,1091.651h-255.86c-2.763,0-5.002-2.239-5.002-5.002v-7.336c0-2.763,2.239-5.002,5.002-5.002  h255.86c2.763,0,5.002,2.239,5.002,5.002v7.336C1843.463,1089.412,1841.224,1091.651,1838.461,1091.651"/>
<path xmlns="http://www.w3.org/2000/svg" fill="#9AC7E2" d="M1566.039,1082.981c0,7.979-6.469,14.449-14.448,14.449c-7.981,0-14.449-6.47-14.449-14.449  s6.468-14.449,14.449-14.449C1559.57,1068.532,1566.039,1075.002,1566.039,1082.981"/>
<path xmlns="http://www.w3.org/2000/svg" fill="#F4C0BD" d="M646.189,865.745c9.375-4.52,59.503-51.966,59.503-51.966s1.005-13.393,1.34-17.746  c0.334-4.353,3.097-8.455,4.855-10.129c1.758-1.674,3.934,0.67,2.427,3.851c-1.507,3.181-2.68,7.198-0.418,6.697  c2.26-0.503,0.578-1.211,4.846-6.107c1.996-2.29,4.136-1.732,4.766-0.394c0.717,1.524,0.502,3.174,0.502,3.174  s2.642,1.689,1.075,7.232c0,0,2.432,2.56,0.973,6.495c0,0,3.24,4.094-0.949,8.702c-5.465,6.011-6.998,4.479-14.197,11.007  c-7.199,6.53-25.843,33.16-34.883,43.707c-9.04,10.547-10.252,18.58-21.803,23.268C642.673,898.223,636.814,870.265,646.189,865.745  "/>
<path xmlns="http://www.w3.org/2000/svg" fill="#CCE9FF" d="M896.203,780.086H713.016V632.024c0-2.538,2.058-4.595,4.596-4.595h173.996c2.537,0,4.596,2.057,4.596,4.595  V780.086z"/>
<path xmlns="http://www.w3.org/2000/svg" fill="#FFFFFF" d="M891.607,881.856H717.61c-2.538,0-4.595-2.058-4.595-4.595v-97.176h183.188v97.176  C896.203,879.798,894.146,881.856,891.607,881.856"/>
<path xmlns="http://www.w3.org/2000/svg" fill="#9AC7E2" d="M878.001,805.528H731.217c-1.62,0-2.936-1.314-2.936-2.936v-4.305c0-1.621,1.315-2.935,2.936-2.935h146.784  c1.622,0,2.937,1.314,2.937,2.935v4.305C880.938,804.214,879.623,805.528,878.001,805.528"/>
<path xmlns="http://www.w3.org/2000/svg" fill="#CCE9FF" d="M878.001,825.882H731.217c-1.62,0-2.936-1.314-2.936-2.936v-4.305c0-1.621,1.315-2.936,2.936-2.936h146.784  c1.622,0,2.937,1.315,2.937,2.936v4.305C880.938,824.568,879.623,825.882,878.001,825.882"/>
<path xmlns="http://www.w3.org/2000/svg" fill="#D2D2D2" d="M806.762,846.236h-75.545c-1.621,0-2.935-1.314-2.935-2.936v-4.306c0-1.621,1.313-2.935,2.935-2.935h75.545  c1.622,0,2.936,1.314,2.936,2.935v4.306C809.698,844.922,808.384,846.236,806.762,846.236"/>
<polygon xmlns="http://www.w3.org/2000/svg" fill="#FFC800" points="735.269,856.667 736.999,860.018 740.867,860.555 738.068,863.163 738.729,866.845 735.269,865.105   731.81,866.845 732.471,863.163 729.672,860.555 733.54,860.018 "/>
<polygon xmlns="http://www.w3.org/2000/svg" fill="#FFC800" points="754.097,856.667 755.826,860.018 759.694,860.555 756.896,863.163 757.556,866.845 754.097,865.105   750.638,866.845 751.298,863.163 748.499,860.555 752.367,860.018 "/>
<polygon xmlns="http://www.w3.org/2000/svg" fill="#FFC800" points="772.925,856.667 774.653,860.018 778.521,860.555 775.723,863.163 776.384,866.845 772.925,865.105   769.466,866.845 770.126,863.163 767.326,860.555 771.194,860.018 "/>
<polygon xmlns="http://www.w3.org/2000/svg" fill="#FFC800" points="791.752,856.667 793.481,860.018 797.35,860.555 794.551,863.163 795.211,866.845 791.752,865.105   788.293,866.845 788.954,863.163 786.154,860.555 790.023,860.018 "/>
<polygon xmlns="http://www.w3.org/2000/svg" fill="#FFC800" points="810.579,856.667 812.31,860.018 816.177,860.555 813.379,863.163 814.038,866.845 810.579,865.105   807.12,866.845 807.78,863.163 804.982,860.555 808.851,860.018 "/>
<path xmlns="http://www.w3.org/2000/svg" fill="#9AC7E2" d="M774.09,750.402h-22.413c-0.836,0-1.514-0.678-1.514-1.515v-30.159c0-0.836,0.678-1.515,1.514-1.515h22.413  c0.837,0,1.515,0.679,1.515,1.515v30.159C775.604,749.724,774.927,750.402,774.09,750.402"/>
<path xmlns="http://www.w3.org/2000/svg" fill="#FFFFFF" d="M772.358,717.213h-18.949v-29.942c0-0.418,0.339-0.757,0.757-0.757h17.435c0.419,0,0.758,0.339,0.758,0.757  V717.213z"/>
<path xmlns="http://www.w3.org/2000/svg" fill="#1975BA" d="M769.816,686.514H755.95v-20.077c0-1.444,0.768-2.785,2.028-3.539l9.257-5.539  c1.13-0.677,2.581,0.119,2.581,1.416V686.514z"/>
<rect xmlns="http://www.w3.org/2000/svg" x="802.065" y="667.677" fill="#9AC7E2" width="56.991" height="78.363"/>
<rect xmlns="http://www.w3.org/2000/svg" x="787.817" y="667.677" fill="#FFFFFF" width="56.992" height="78.363"/>
<path xmlns="http://www.w3.org/2000/svg" fill="#1975BA" d="M826.747,697.5l0.007,0.007c2.88,2.879,2.871,7.549-0.007,10.428l-10.441,10.441l-10.435-10.434  c-2.879-2.879-2.872-7.549,0.008-10.428l0.007-0.007c2.879-2.879,7.542-2.879,10.42,0l0.007-0.007  C819.191,694.622,823.869,694.622,826.747,697.5"/>
<path xmlns="http://www.w3.org/2000/svg" fill="#1E0F00" d="M668.009,1526.548l-1.044,26.311h19.128l0.853-5.84c0,0,10.396,1.285,23.061,0.92  c12.663-0.365,22.928-2.553,22.928-2.553c1.559-0.16,2.699-1.543,2.56-3.104c-0.093-1.047-0.742-1.955-1.707-2.375  c-4.261-1.852-16.341-6.717-24.705-6.254c-10.313,0.57-14.576,0.549-16.404-7.105H668.009z"/>
<path xmlns="http://www.w3.org/2000/svg" fill="#5d8bf4" d="M641.534,1160.583c0,0,20.257,107.479,31.641,144.309c0,0,2.009,64.957,0,90.404  s-5.356,131.252-5.356,131.252h24.859c0,0,29.381-163.396,27.373-224.334c-2.009-60.938-14.815-141.631-14.815-141.631H641.534z"/>
<path xmlns="http://www.w3.org/2000/svg" fill="#5d8bf4" d="M748.009,1167.112v156.531c0,24.107-60.102,213.619-60.102,213.619l-25.446-6.027l37.501-208.262  c0,0-20.761-96.955-20.761-141.225L748.009,1167.112z"/>
<path xmlns="http://www.w3.org/2000/svg" fill="#FECCC6" d="M768.35,913.23c0,0,20.675-3.767,30.05-8.287c9.376-4.519,84.711-67.467,84.711-67.467  s1.005-13.393,1.34-17.746c0.335-4.353,3.098-8.455,4.856-10.129c1.757-1.674,3.934,0.67,2.427,3.851  c-1.507,3.18-2.678,7.198-0.418,6.696c2.26-0.502,0.577-1.21,4.847-6.106c1.995-2.29,4.136-1.732,4.766-0.394  c0.716,1.524,0.502,3.174,0.502,3.174s2.643,1.689,1.075,7.231c0,0,2.431,2.561,0.972,6.495c0,0,3.241,4.095-0.949,8.703  c-5.466,6.011-6.998,4.478-14.197,11.007c-7.198,6.53-37.361,41.292-46.401,51.839c-9.04,10.547-23.94,25.949-35.492,30.636  c-11.551,4.688-28.293,10.882-28.293,10.882L768.35,913.23z"/>
<path xmlns="http://www.w3.org/2000/svg" fill="#0E538B" d="M641.534,1160.583c0,0,1.004,22.601,45.201,21.094c44.196-1.508,61.273-14.565,61.273-14.565  s-4.519-76.341-3.516-102.959c1.004-26.618,16.323-57.004-1.256-94.17c0,0,29.049-4.748,44.116-20.317l-12.727-44.723  c0,0-35.659,13.561-57.757,15.57c-22.099,2.008-45.704-3.516-58.762,14.565c-13.059,18.08-7.4,35.314-4.062,82.003  C656.556,1052.157,666.646,1112.368,641.534,1160.583"/>
<path xmlns="http://www.w3.org/2000/svg" fill="#FECCC6" d="M697.282,805.667c0,0,6.696,20.089,15.737,25.447c9.04,5.357,14.397,7.868,14.231,9.71  c-0.168,1.841-4.354,3.013-6.53,4.185c-2.176,1.172-0.669,11.217,2.177,14.229c2.846,3.013,5.692,15.905,0,17.243  c-5.691,1.34-14.063-1.841-15.235,0.503c-1.171,2.344,1.872,24.275,5.038,34.989c3.166,10.714,4.84,14.565,4.84,14.565  l-30.637,10.38l-13.56-55.414C673.343,881.505,635.34,819.395,697.282,805.667"/>
<path xmlns="http://www.w3.org/2000/svg" fill="#1E0F00" d="M701.803,803.993c7.131,17.474,3.265,32.646,2.009,45.955c-1.256,13.309,14.565,46.206,16.323,65.291  c1.757,19.085-11.803,90.989-59.684,89.984c-47.88-1.004-64.286-34.822-49.219-61.272c15.067-26.452,33.817-39.175,22.434-65.626  c-11.385-26.452-4.018-56.586,5.357-59.6c0,0,9.375-26.451,33.148-26.451C695.943,792.274,699.931,799.407,701.803,803.993"/>
<path xmlns="http://www.w3.org/2000/svg" fill="#1E0F00" d="M662.46,1531.235l-6.584,25.496l18.503,4.502l0.973-3.715c0,0,12.14,6.102,22.147,9.338  c10.009,3.238,22.886,5.568,22.886,5.568c1.519,0.385,3.066-0.52,3.474-2.033c0.274-1.016-0.024-2.092-0.785-2.816  c-3.363-3.207-13.03-11.934-21.043-14.377c-9.878-3.014-13.956-8.068-14.123-15.936L662.46,1531.235z"/>
<path xmlns="http://www.w3.org/2000/svg" fill="#2A94F5" d="M2123.269,1447.237h358.806c18.016,0,32.619-14.604,32.619-32.619V633.4  c0-18.915-15.334-34.249-34.25-34.249h-355.544c-18.915,0-34.249,15.334-34.249,34.249v781.218  C2090.65,1432.634,2105.254,1447.237,2123.269,1447.237"/>
<path xmlns="http://www.w3.org/2000/svg" fill="#FFFFFF" d="M2127.074,1440.169h351.195c16.213,0,29.356-13.143,29.356-29.355V637.206  c0-17.114-13.874-30.988-30.989-30.988h-347.932c-17.114,0-30.987,13.874-30.987,30.988v773.608  C2097.718,1427.026,2110.861,1440.169,2127.074,1440.169"/>
<path xmlns="http://www.w3.org/2000/svg" fill="#2A94F5" d="M2518.044,860.643h-3.351v-70.674h3.351c2.053,0,3.717,1.664,3.717,3.717v63.24  C2521.761,858.979,2520.097,860.643,2518.044,860.643"/>
<path xmlns="http://www.w3.org/2000/svg" fill="#2A94F5" d="M2086.741,889.028h3.909v-42.405h-3.909c-1.744,0-3.158,1.413-3.158,3.159v36.087  C2083.583,887.614,2084.997,889.028,2086.741,889.028"/>
<path xmlns="http://www.w3.org/2000/svg" fill="#2A94F5" d="M2086.741,803.989h3.909v-42.404h-3.909c-1.744,0-3.158,1.413-3.158,3.158v36.088  C2083.583,802.575,2084.997,803.989,2086.741,803.989"/>
<path xmlns="http://www.w3.org/2000/svg" fill="#2A94F5" d="M2352.144,623.886c0,3.903-3.164,7.067-7.067,7.067c-3.904,0-7.067-3.164-7.067-7.067  c0-3.903,3.163-7.067,7.067-7.067C2348.979,616.819,2352.144,619.983,2352.144,623.886"/>
<path xmlns="http://www.w3.org/2000/svg" fill="#2A94F5" d="M2321.835,627.419h-66.597c-1.127,0-2.038-0.913-2.038-2.039v-2.99c0-1.126,0.911-2.038,2.038-2.038h66.597  c1.126,0,2.039,0.912,2.039,2.038v2.99C2323.874,626.506,2322.961,627.419,2321.835,627.419"/>
<path xmlns="http://www.w3.org/2000/svg" fill="#F0F2F7" d="M2497.02,659.225v727.944c0,23.422-18.984,42.404-42.404,42.404h-303.889  c-23.421,0-42.404-18.982-42.404-42.404V659.225c0-23.42,18.983-42.404,42.404-42.404h45.939c3.901,0,7.424,1.578,9.981,4.135  c2.571,2.558,4.149,6.094,4.149,9.995c0,7.802,6.328,14.144,14.131,14.144h155.486c0.482,0,0.965-0.04,1.422-0.078  c3.341-0.34,6.328-1.827,8.572-4.071c2.557-2.558,4.137-6.094,4.137-9.995c0-7.802,6.341-14.13,14.144-14.13h45.927  C2478.035,616.821,2497.02,635.805,2497.02,659.225"/>
<path xmlns="http://www.w3.org/2000/svg" fill="#1975BA" d="M2092.713,782.336h-23.447c-8.829,0-15.986-7.157-15.986-15.987v-39.433h55.42v39.433  C2108.699,775.178,2101.542,782.336,2092.713,782.336"/>
<path xmlns="http://www.w3.org/2000/svg" fill="#FFFFFF" d="M2148.134,782.336h-23.447c-8.829,0-15.987-7.157-15.987-15.987v-39.433h55.42v39.433  C2164.119,775.178,2156.963,782.336,2148.134,782.336"/>
<path xmlns="http://www.w3.org/2000/svg" fill="#1975BA" d="M2203.554,782.336h-23.447c-8.829,0-15.987-7.157-15.987-15.987v-39.433h55.422v39.433  C2219.541,775.178,2212.384,782.336,2203.554,782.336"/>
<path xmlns="http://www.w3.org/2000/svg" fill="#FFFFFF" d="M2258.975,782.336h-23.447c-8.829,0-15.986-7.157-15.986-15.987v-39.433h55.42v39.433  C2274.961,775.178,2267.804,782.336,2258.975,782.336"/>
<path xmlns="http://www.w3.org/2000/svg" fill="#1975BA" d="M2314.396,782.336h-23.447c-8.829,0-15.987-7.157-15.987-15.987v-39.433h55.42v39.433  C2330.381,775.178,2323.225,782.336,2314.396,782.336"/>
<path xmlns="http://www.w3.org/2000/svg" fill="#FFFFFF" d="M2369.815,782.336h-23.446c-8.83,0-15.988-7.157-15.988-15.987v-39.433h55.422v39.433  C2385.803,775.178,2378.646,782.336,2369.815,782.336"/>
<path xmlns="http://www.w3.org/2000/svg" fill="#1975BA" d="M2425.236,782.336h-23.447c-8.829,0-15.986-7.157-15.986-15.987v-39.433h55.42v39.433  C2441.223,775.178,2434.065,782.336,2425.236,782.336"/>
<path xmlns="http://www.w3.org/2000/svg" fill="#1975BA" d="M2536.078,782.336h-23.447c-8.83,0-15.988-7.157-15.988-15.987v-39.433h55.422v39.433  C2552.064,775.178,2544.907,782.336,2536.078,782.336"/>
<path xmlns="http://www.w3.org/2000/svg" fill="#FFFFFF" d="M2480.657,782.336h-23.447c-8.829,0-15.987-7.157-15.987-15.987v-39.433h55.42v39.433  C2496.643,775.178,2489.486,782.336,2480.657,782.336"/>
<polygon xmlns="http://www.w3.org/2000/svg" fill="#0F528B" points="2108.699,726.915 2053.279,726.915 2108.721,660.388 2151.822,660.388 "/>
<polygon xmlns="http://www.w3.org/2000/svg" fill="#F0F2F7" points="2164.12,726.915 2108.699,726.915 2151.822,660.388 2194.922,660.388 "/>
<polygon xmlns="http://www.w3.org/2000/svg" fill="#0F528B" points="2219.541,726.915 2164.12,726.915 2194.922,660.388 2238.021,660.388 "/>
<polygon xmlns="http://www.w3.org/2000/svg" fill="#F0F2F7" points="2274.961,726.915 2219.541,726.915 2238.021,660.388 2281.122,660.388 "/>
<polygon xmlns="http://www.w3.org/2000/svg" fill="#0F528B" points="2330.382,726.915 2274.961,726.915 2281.122,660.388 2324.222,660.388 "/>
<polygon xmlns="http://www.w3.org/2000/svg" fill="#F0F2F7" points="2385.803,726.915 2330.382,726.915 2324.222,660.388 2367.321,660.388 "/>
<polygon xmlns="http://www.w3.org/2000/svg" fill="#0F528B" points="2441.224,726.915 2385.803,726.915 2367.321,660.388 2410.422,660.388 "/>
<polygon xmlns="http://www.w3.org/2000/svg" fill="#0F528B" points="2552.064,726.915 2496.644,726.915 2453.521,660.388 2496.621,660.388 "/>
<polygon xmlns="http://www.w3.org/2000/svg" fill="#F0F2F7" points="2496.644,726.915 2441.224,726.915 2410.422,660.388 2453.521,660.388 "/>
<path xmlns="http://www.w3.org/2000/svg" fill="#FFFFFF" d="M2381.366,998.788h-223.933c-2.655,0-4.808-2.153-4.808-4.81v-7.052c0-2.657,2.152-4.81,4.808-4.81h223.933  c2.655,0,4.81,2.153,4.81,4.81v7.052C2386.176,996.635,2384.021,998.788,2381.366,998.788"/>
<path xmlns="http://www.w3.org/2000/svg" fill="#FFFFFF" d="M2304.386,1249.767h-146.951c-2.656,0-4.809-2.152-4.809-4.809v-7.055c0-2.654,2.152-4.809,4.809-4.809  h146.951c2.655,0,4.81,2.154,4.81,4.809v7.055C2309.195,1247.614,2307.041,1249.767,2304.386,1249.767"/>
<path xmlns="http://www.w3.org/2000/svg" fill="#FFFFFF" d="M2382.671,1285.593h-225.236c-2.657,0-4.809-2.152-4.809-4.809v-7.055c0-2.656,2.151-4.809,4.809-4.809  h225.236c2.655,0,4.81,2.152,4.81,4.809v7.055C2387.48,1283.44,2385.326,1285.593,2382.671,1285.593"/>
<path xmlns="http://www.w3.org/2000/svg" fill="#FFFFFF" d="M2381.366,831.468h-223.933c-2.655,0-4.808-2.153-4.808-4.809v-7.054c0-2.656,2.152-4.809,4.808-4.809  h223.933c2.655,0,4.81,2.153,4.81,4.809v7.054C2386.176,829.315,2384.021,831.468,2381.366,831.468"/>
<path xmlns="http://www.w3.org/2000/svg" fill="#FFFFFF" d="M2445.975,1103.167h-286.606c-3.724,0-6.743-3.019-6.743-6.742v-64.799c0-3.725,3.02-6.744,6.743-6.744  h286.606c3.725,0,6.743,3.02,6.743,6.744v64.799C2452.718,1100.148,2449.699,1103.167,2445.975,1103.167"/>
<path xmlns="http://www.w3.org/2000/svg" fill="#F0F2F7" d="M2298.908,1057.501h-122.947c-2.079,0-3.764-1.685-3.764-3.764v-5.52c0-2.078,1.685-3.764,3.764-3.764  h122.947c2.078,0,3.764,1.686,3.764,3.764v5.52C2302.672,1055.816,2300.986,1057.501,2298.908,1057.501"/>
<path xmlns="http://www.w3.org/2000/svg" fill="#CCE9FF" d="M2398.504,1083.597h-222.543c-2.079,0-3.764-1.686-3.764-3.765v-5.519c0-2.079,1.685-3.764,3.764-3.764  h222.543c2.078,0,3.764,1.685,3.764,3.764v5.519C2402.268,1081.911,2400.582,1083.597,2398.504,1083.597"/>
<path xmlns="http://www.w3.org/2000/svg" fill="#FFFFFF" d="M2445.975,1201.024h-286.606c-3.724,0-6.743-3.02-6.743-6.744v-64.799c0-3.724,3.02-6.742,6.743-6.742  h286.606c3.725,0,6.743,3.019,6.743,6.742v64.799C2452.718,1198.005,2449.699,1201.024,2445.975,1201.024"/>
<path xmlns="http://www.w3.org/2000/svg" fill="#F0F2F7" d="M2298.908,1155.358h-122.947c-2.079,0-3.764-1.687-3.764-3.765v-5.521c0-2.077,1.685-3.764,3.764-3.764  h122.947c2.078,0,3.764,1.687,3.764,3.764v5.521C2302.672,1153.672,2300.986,1155.358,2298.908,1155.358"/>
<path xmlns="http://www.w3.org/2000/svg" fill="#CCE9FF" d="M2242.836,1181.452h-66.875c-2.079,0-3.764-1.686-3.764-3.764v-5.52c0-2.078,1.685-3.764,3.764-3.764h66.875  c2.078,0,3.764,1.686,3.764,3.764v5.52C2246.6,1179.767,2244.914,1181.452,2242.836,1181.452"/>
<path xmlns="http://www.w3.org/2000/svg" fill="#CCE9FF" d="M2330.285,1181.452h-66.875c-2.078,0-3.764-1.686-3.764-3.764v-5.52c0-2.078,1.686-3.764,3.764-3.764h66.875  c2.079,0,3.764,1.686,3.764,3.764v5.52C2334.049,1179.767,2332.364,1181.452,2330.285,1181.452"/>
<path xmlns="http://www.w3.org/2000/svg" fill="#CCE9FF" d="M2417.735,1181.452h-66.875c-2.079,0-3.765-1.686-3.765-3.764v-5.52c0-2.078,1.686-3.764,3.765-3.764h66.875  c2.078,0,3.764,1.686,3.764,3.764v5.52C2421.499,1179.767,2419.813,1181.452,2417.735,1181.452"/>
<path xmlns="http://www.w3.org/2000/svg" fill="#E6E8ED" d="M2437.663,1398.255h-269.982c-8.314,0-15.055-6.74-15.055-15.055v-22.08c0-8.314,6.74-15.055,15.055-15.055  h269.982c8.313,0,15.055,6.74,15.055,15.055v22.08C2452.718,1391.515,2445.977,1398.255,2437.663,1398.255"/>
<path xmlns="http://www.w3.org/2000/svg" fill="#2A94F5" d="M2437.663,1385.208h-269.982c-8.314,0-15.055-6.74-15.055-15.055v-22.082c0-8.314,6.74-15.055,15.055-15.055  h269.982c8.313,0,15.055,6.74,15.055,15.055v22.082C2452.718,1378.468,2445.977,1385.208,2437.663,1385.208"/>
<path xmlns="http://www.w3.org/2000/svg" fill="#FFFFFF" d="M2426.623,1329.55h-247.902c-16.301,0-29.563,13.262-29.563,29.563s13.262,29.561,29.563,29.561h247.902  c16.3,0,29.562-13.26,29.562-29.561S2442.923,1329.55,2426.623,1329.55 M2426.623,1385.206h-247.902  c-14.412,0-26.096-11.682-26.096-26.094s11.684-26.096,26.096-26.096h247.902c14.412,0,26.095,11.684,26.095,26.096  S2441.035,1385.206,2426.623,1385.206"/>
<path xmlns="http://www.w3.org/2000/svg" fill="#FFFFFF" d="M2288.62,948.896h-128.467c-4.157,0-7.527-3.37-7.527-7.527V865.09c0-4.157,3.37-7.528,7.527-7.528h128.467  c4.157,0,7.526,3.371,7.526,7.528v76.278C2296.146,945.525,2292.777,948.896,2288.62,948.896"/>
<path xmlns="http://www.w3.org/2000/svg" fill="#2A94F5" d="M2279.337,935.848h-109.9c-2.079,0-3.764-1.685-3.764-3.764v-57.71c0-2.078,1.685-3.763,3.764-3.763h109.9  c2.078,0,3.764,1.685,3.764,3.763v57.71C2283.101,934.163,2281.415,935.848,2279.337,935.848"/>
<path xmlns="http://www.w3.org/2000/svg" fill="#FFFFFF" d="M2444.603,948.896h-128.467c-4.158,0-7.528-3.37-7.528-7.527V865.09c0-4.157,3.37-7.528,7.528-7.528h128.467  c4.157,0,7.526,3.371,7.526,7.528v76.278C2452.129,945.525,2448.76,948.896,2444.603,948.896"/>
<path xmlns="http://www.w3.org/2000/svg" fill="#FFFFFF" d="M2497.02,857.56v91.333h-18.332c-7.202,0-13.047-5.833-13.047-13.048v-65.238  c0-7.202,5.845-13.047,13.047-13.047H2497.02z"/>
<path xmlns="http://www.w3.org/2000/svg" fill="#F0F2F7" d="M2435.319,935.848h-109.9c-2.079,0-3.764-1.685-3.764-3.764v-57.71c0-2.078,1.685-3.763,3.764-3.763h109.9  c2.078,0,3.764,1.685,3.764,3.763v57.71C2439.083,934.163,2437.397,935.848,2435.319,935.848"/>
<path xmlns="http://www.w3.org/2000/svg" fill="#F0F2F7" d="M2497.02,870.607v65.237h-11.809c-3.601,0-6.523-2.922-6.523-6.523v-52.19c0-3.601,2.923-6.524,6.523-6.524  H2497.02z"/>
<path xmlns="http://www.w3.org/2000/svg" fill="#FFFFFF" d="M2243.958,903.229c0,10.809-8.763,19.571-19.571,19.571s-19.572-8.762-19.572-19.571  s8.764-19.571,19.572-19.571S2243.958,892.42,2243.958,903.229"/>
<path xmlns="http://www.w3.org/2000/svg" fill="#2A94F5" d="M2221.696,910.898c-0.666,0-1.331-0.254-1.839-0.762l-4.756-4.756c-1.016-1.016-1.016-2.661,0-3.677  c1.016-1.015,2.66-1.015,3.676,0l2.919,2.919l8.301-8.302c1.015-1.015,2.661-1.015,3.677,0c1.016,1.016,1.016,2.661,0,3.677  l-10.14,10.139C2223.026,910.645,2222.361,910.898,2221.696,910.898"/>
<path xmlns="http://www.w3.org/2000/svg" fill="#F0F2F7" d="M2242.685,1620.476c0,15.383,91.178,27.854,203.651,27.854s203.651-12.471,203.651-27.854  s-91.178-27.852-203.651-27.852S2242.685,1605.093,2242.685,1620.476"/>
<path xmlns="http://www.w3.org/2000/svg" fill="#F4C0BD" d="M2525.141,1010.786c0,0-3.579-17.416-4.057-35.548h-26.006c0,0-1.608,23.526-5.457,35.025l-6.472,22.475  h45.093L2525.141,1010.786z"/>
<path xmlns="http://www.w3.org/2000/svg" fill="#1E0F00" d="M2530.409,972.842c0,0,4.036-8.818,9.522-10.011c5.489-1.193,21.713-27.198,1.433-34.357  c0,0-10.113-31.016-35.477-31.016c-25.362,0-27.749,15.03-27.749,15.03s-13.837,2.864-13.837,13.839  c0,10.974,10.259,17.884,10.259,17.884s15.209-2.643,16.701-9.061l31.665,13.184L2530.409,972.842z"/>
<path xmlns="http://www.w3.org/2000/svg" fill="#FFD13E" d="M2422.64,1600.569l19.792-413.547c0,0,53.125,19.403,111.34,6.998v406.549h-33.403l-27.286-331.301  l-37.041,331.301H2422.64z"/>
<path xmlns="http://www.w3.org/2000/svg" fill="#2A94F5" d="M2442.432,1187.022v-117.703c0,0-86.846,1.908-104.979-6.361c-18.132-8.271-69.984-94.798-69.984-94.798  l16.542-12.725c0,0,55.034,57.897,70.939,66.804c15.905,8.906,87.481-4.453,87.481-4.453l47.189-7.523  c0,0-0.507,17.702,16.672,17.702c17.178,0,18.848-17.178,18.848-17.178l28.81,17.312l4.897,3.775l-5.076,162.146  C2553.771,1194.021,2499.056,1223.287,2442.432,1187.022"/>
<path xmlns="http://www.w3.org/2000/svg" fill="#FECCC6" d="M2267.469,968.16c-11.747-20.49-21.313-23.858-23.858-37.537c-2.545-13.679,9.544-10.816,14.634-5.408  c0,0-6.362-12.089-10.18-19.723c-3.818-7.635,5.09-3.499,9.543,2.545c4.453,6.044,15.543,28.844,26.403,47.398L2267.469,968.16z"/>
<path xmlns="http://www.w3.org/2000/svg" fill="#1E0F00" d="M2553.771,1600.569v26.244h-75.344c0,0-0.051-8.748,4.722-9.703c4.772-0.953,34.356-10.18,37.22-16.541  H2553.771z"/>
<path xmlns="http://www.w3.org/2000/svg" fill="#1E0F00" d="M2456.041,1600.569v26.244h-75.343c0,0-0.05-8.748,4.722-9.703c4.771-0.953,34.355-10.18,37.22-16.541  H2456.041z"/>
<path xmlns="http://www.w3.org/2000/svg" fill="#FECCC6" d="M2538.846,952.343c0,4.658-3.78,8.476-8.438,8.476v12.024c-5.498,6.451-31.492,29.365-47.259,21.004  c-15.766-8.359-8.589-49.634-8.589-49.634c12.406-7.406,14.314-19.546,14.314-19.546c5.498,7.368,23.668,17.98,34.052,23.669  c1.451-2.673,4.237-4.468,7.481-4.468C2535.065,943.868,2538.846,947.648,2538.846,952.343"/>
<path xmlns="http://www.w3.org/2000/svg" fill="#2A94F5" d="M2553.95,1028.099c28.327,13.649,45.629,104.845,45.629,123.932c0,19.086-45.808,65.333-45.808,65.333  l-12.733-8.942c0,0,21.64-36.669,26.094-53.529c4.453-16.858-31.725-66.131-31.725-66.131L2553.95,1028.099z"/>
<path xmlns="http://www.w3.org/2000/svg" fill="#FECCC6" d="M2541.038,1208.421c0,0-4.765,1.506-6.831,4.367l-2.067,2.863l15.427,11.293c0,0,6.205-2.623,6.205-9.582  L2541.038,1208.421z"/>
<path xmlns="http://www.w3.org/2000/svg" fill="#1975BA" d="M2549.231,1229.03c-0.179,0-0.357-0.055-0.511-0.168l-19.304-14.129c-0.388-0.283-0.471-0.824-0.188-1.211  c0.283-0.387,0.828-0.471,1.211-0.188l19.304,14.129c0.388,0.283,0.47,0.824,0.188,1.211  C2549.762,1228.905,2549.497,1229.03,2549.231,1229.03"/>
<path xmlns="http://www.w3.org/2000/svg" fill="#1975BA" d="M2443.648,1223.089c-0.236,0-0.475-0.098-0.645-0.289c-0.32-0.357-0.289-0.904,0.066-1.223l15.405-13.802  c0.355-0.319,0.901-0.292,1.224,0.067c0.32,0.355,0.289,0.904-0.066,1.224l-15.405,13.8  C2444.062,1223.016,2443.855,1223.089,2443.648,1223.089"/>
<path xmlns="http://www.w3.org/2000/svg" fill="#1975BA" d="M2493.083,1270.136c-0.029,0-0.058-0.002-0.087-0.004c-0.477-0.047-0.824-0.473-0.778-0.947l3.01-30.553  c0.046-0.477,0.48-0.803,0.948-0.779c0.477,0.049,0.824,0.473,0.778,0.949l-3.011,30.551  C2493.898,1269.802,2493.521,1270.136,2493.083,1270.136"/>
<path xmlns="http://www.w3.org/2000/svg" fill="#481AA0" d="M2267.469,969.026c-0.259,0-0.518-0.117-0.688-0.338c-0.291-0.379-0.22-0.923,0.159-1.216l16.543-12.724  c0.376-0.289,0.922-0.222,1.214,0.159c0.293,0.38,0.222,0.923-0.158,1.216l-16.543,12.724  C2267.839,968.967,2267.653,969.026,2267.469,969.026"/>
<path xmlns="http://www.w3.org/2000/svg" fill="#1975BA" d="M2506.293,1028.831c-5.151,0-9.295-1.563-12.316-4.647c-5.33-5.44-5.228-13.595-5.221-13.939  c0.011-0.478,0.438-0.793,0.884-0.85c0.478,0.01,0.858,0.405,0.849,0.883c0,0.078-0.086,7.791,4.734,12.701  c2.684,2.732,6.408,4.119,11.07,4.119c16.031,0,17.914-15.734,17.986-16.402c0.051-0.477,0.5-0.824,0.953-0.771  c0.476,0.051,0.821,0.477,0.771,0.952C2525.984,1011.059,2523.898,1028.831,2506.293,1028.831"/>
<path xmlns="http://www.w3.org/2000/svg" fill="#1975BA" d="M2556.059,1121.825c-0.3,0-0.584-0.155-0.743-0.422l-8.772-14.672c-0.246-0.412-0.111-0.943,0.299-1.188  c0.408-0.249,0.944-0.114,1.188,0.298l7.162,11.978v-24.705c0-0.478,0.389-0.865,0.867-0.865s0.866,0.388,0.866,0.865v27.844  c0,0.39-0.261,0.732-0.638,0.837C2556.211,1121.815,2556.135,1121.825,2556.059,1121.825"/>
<path xmlns="http://www.w3.org/2000/svg" fill="#1975BA" d="M2442.432,1093.981c-0.479,0-0.866-0.387-0.866-0.867v-22.738h-18.927c-0.479,0-0.866-0.389-0.866-0.868  c0-0.478,0.388-0.866,0.866-0.866h19.793c0.479,0,0.867,0.389,0.867,0.866v23.606  C2443.299,1093.595,2442.91,1093.981,2442.432,1093.981"/>
<path xmlns="http://www.w3.org/2000/svg" fill="#CAEAFF" d="M438.361,1351.146c-14.855,0-32.365-33.016-56.265-78.078l-0.195-0.367  c-23.479-44.872-31.918-71.846-26.562-84.896c1.656-4.037,4.63-6.767,8.837-8.112c10.325-3.44,26.152,3.233,42.314,17.864  c17.099,15.477,31.515,37.309,39.552,59.898c14.124,38.719,11.651,71.619,3.376,85.805c-2.61,4.48-5.855,7.156-9.384,7.744  C439.48,1351.099,438.924,1351.146,438.361,1351.146 M370,1182.009c-1.746,0-3.363,0.24-4.828,0.729  c-3.328,1.064-5.569,3.118-6.867,6.283c-4.902,11.943,3.744,38.826,26.431,82.186l0.191,0.361  c21.688,40.891,40.506,76.369,53.423,76.373c0.39,0,0.771-0.031,1.15-0.098c2.565-0.426,5.036-2.568,7.152-6.197  c10.782-18.484,6.34-55.795-3.621-83.1l-0.004-0.012c-7.867-22.109-21.967-43.469-38.687-58.604  C391.702,1188.489,379.103,1182.009,370,1182.009"/>
<path xmlns="http://www.w3.org/2000/svg" fill="#CAEAFF" d="M460.289,1285.435c-0.345,0-0.689-0.027-1.03-0.086c-2.165-0.361-4.14-1.967-5.7-4.643  c-4.674-8.014-6.098-26.529,1.819-48.238c9.942-27.936,34.207-47.652,46.357-43.604c2.527,0.81,4.327,2.462,5.33,4.907  c3.102,7.557-1.454,22.277-14.772,47.73l-0.11,0.205C478.803,1266.938,468.992,1285.435,460.289,1285.435 M498.304,1191.546  c-10.575,0-31.034,17.061-39.909,42.002l-0.004,0.012c-5.473,15.002-7.939,35.459-2.064,45.533c1.064,1.824,2.264,2.896,3.468,3.096  c6.691,1.139,17.795-19.801,29.56-41.982l0.105-0.199c4.588-8.768,18.561-35.474,14.644-45.021  c-0.637-1.549-1.735-2.556-3.361-3.077C500.007,1191.665,499.189,1191.546,498.304,1191.546"/>
<path xmlns="http://www.w3.org/2000/svg" fill="#2A94F5" d="M464.848,1253.403c0,52.199-12.762,94.516-28.505,94.516c-15.743,0-28.505-42.316-28.505-94.516  s12.762-94.517,28.505-94.517C452.086,1158.887,464.848,1201.204,464.848,1253.403"/>
<path xmlns="http://www.w3.org/2000/svg" fill="#CAEAFF" d="M436.343,1330.019c-0.885,0-1.603-0.717-1.603-1.602v-150.025c0-0.885,0.718-1.603,1.603-1.603  c0.885,0,1.602,0.718,1.602,1.603v150.025C437.944,1329.302,437.228,1330.019,436.343,1330.019"/>
<path xmlns="http://www.w3.org/2000/svg" fill="#2A94F5" d="M511.484,1291.759c-29.51,32.41-47.923,59.809-59.362,56.723c-10.941-2.732-17.512-36.975,4.273-76.359  c21.397-39.816,69.392-60.99,87.79-50.703C563.075,1231.562,540.437,1259.579,511.484,1291.759"/>
<path xmlns="http://www.w3.org/2000/svg" fill="#CAEAFF" d="M456.745,1335.634c-0.181,0-0.363-0.031-0.542-0.096c-0.833-0.299-1.266-1.217-0.965-2.049  c13.891-38.59,39.374-73.969,73.692-102.313c0.683-0.563,1.693-0.467,2.255,0.215c0.565,0.682,0.468,1.691-0.215,2.256  c-33.876,27.977-59.022,62.877-72.719,100.926C458.017,1335.228,457.401,1335.634,456.745,1335.634"/>
<path xmlns="http://www.w3.org/2000/svg" fill="#2A94F5" d="M411.396,1287.751c19.583,32.252,18.912,62.104,9.508,65.652c-9.691,3.721-27.757-18.502-51.051-47.102  c-22.99-28.547-39.382-54.475-26.054-61.855C356.836,1237.024,392.056,1255.323,411.396,1287.751"/>
<path xmlns="http://www.w3.org/2000/svg" fill="#CAEAFF" d="M415.778,1342.929c-0.609,0-1.191-0.35-1.46-0.939c-14.308-31.537-34.802-60.572-60.915-86.303  c-0.63-0.621-0.637-1.635-0.016-2.266c0.62-0.629,1.635-0.637,2.266-0.016c26.394,26.006,47.112,55.365,61.582,87.26  c0.366,0.807,0.009,1.756-0.796,2.121C416.225,1342.884,416,1342.929,415.778,1342.929"/>
<path xmlns="http://www.w3.org/2000/svg" fill="#F0F2F7" d="M468.914,1447.237h-66.29c-7.246,0-13.485-5.115-14.907-12.221l-18.541-92.707  c-0.941-4.703,2.657-9.092,7.454-9.092h118.279c4.797,0,8.393,4.389,7.454,9.092l-18.542,92.707  C482.399,1442.122,476.161,1447.237,468.914,1447.237"/>
<g xmlns="http://www.w3.org/2000/svg">
	<g>
		<path fill="#5d8bf4" d="M1330.932,669.556c0,13.352-10.823,24.176-24.176,24.176c-13.354,0-24.177-10.824-24.177-24.176    c0-13.353,10.823-24.176,24.177-24.176C1320.108,645.38,1330.932,656.204,1330.932,669.556z"/>
	</g>
	<g>
		<path fill="#FFFFFF" d="M1306.756,711.04c-22.875,0-41.485-18.609-41.485-41.484s18.61-41.484,41.485-41.484    s41.485,18.609,41.485,41.484S1329.631,711.04,1306.756,711.04z M1306.756,629.485c-22.096,0-40.072,17.976-40.072,40.071    c0,22.095,17.977,40.071,40.072,40.071c22.095,0,40.072-17.976,40.072-40.071C1346.828,647.461,1328.851,629.485,1306.756,629.485    z"/>
	</g>
	<g>
		<path fill="#FFFFFF" d="M1306.756,718.578c-27.03,0-49.021-21.992-49.021-49.022c0-27.03,21.99-49.022,49.021-49.022    s49.021,21.992,49.021,49.022C1355.777,696.586,1333.786,718.578,1306.756,718.578z M1306.756,621.947    c-26.252,0-47.607,21.358-47.607,47.609c0,26.25,21.355,47.609,47.607,47.609s47.608-21.358,47.608-47.609    C1354.364,643.306,1333.008,621.947,1306.756,621.947z"/>
	</g>
</g>
<g xmlns="http://www.w3.org/2000/svg">
	<g>
		<rect x="1054.981" y="638.561" fill="#5d8bf4" width="61.99" height="61.99"/>
	</g>
	<g>
		<path fill="#5d8bf4" d="M1099.57,713.805h-63.445V650.36h63.445V713.805z M1037.58,712.35h60.535v-60.535h-60.535V712.35z"/>
	</g>
	<g>
		<rect x="1042.519" y="629.358" fill="#1975BA" width="43.458" height="43.458"/>
	</g>
</g>
<g xmlns="http://www.w3.org/2000/svg">
	<g>
		<polygon fill="#2A95F4" points="1520.367,718.402 1520.367,643.675 1575.391,681.037   "/>
	</g>
	<g>
		<polygon fill="#FFFFFF" points="1528.971,693.897 1528.971,619.17 1583.993,656.532   "/>
	</g>
	<g>
		<path fill="#FFFFFF" d="M1528.94,725.745c-14.812,0-27.876-10.516-31.064-25.004c-3.773-17.145,7.105-34.165,24.251-37.938    c2.263-0.499,4.577-0.75,6.873-0.75c14.812,0,27.876,10.514,31.065,25.002c1.828,8.306,0.313,16.828-4.268,23.992    c-4.58,7.164-11.677,12.118-19.983,13.945C1533.55,725.49,1531.238,725.745,1528.94,725.745z M1529,663.533    c-2.19,0-4.396,0.24-6.555,0.716c-16.348,3.599-26.721,19.825-23.123,36.174c3.04,13.814,15.496,23.841,29.618,23.841    c2.19,0,4.396-0.243,6.556-0.717c7.919-1.744,14.687-6.466,19.055-13.296c4.366-6.833,5.812-14.956,4.068-22.877    C1555.578,673.559,1543.122,663.533,1529,663.533z"/>
	</g>
</g>
<g xmlns="http://www.w3.org/2000/svg">
	<g>
		
			<rect x="1758.96" y="667.927" transform="matrix(0.7071 -0.7071 0.7071 0.7071 37.4346 1452.4822)" fill="#5d8bf4" width="26.25" height="26.25"/>
	</g>
	<g>
		<path fill="#2A94F2" d="M1772.098,716.375l-35.337-35.336l35.337-35.337l35.337,35.337L1772.098,716.375z M1738.175,681.039    l33.923,33.922l33.923-33.922l-33.923-33.923L1738.175,681.039z"/>
	</g>
</g>
</svg>